<?xml version="1.0" encoding="UTF-8"?>
<svg width="103px" height="18px" viewBox="0 0 103 18" version="1.1" xmlns="http://www.w3.org/2000/svg" xmlns:xlink="http://www.w3.org/1999/xlink">
    <!-- Generator: Sketch 63.1 (92452) - https://sketch.com -->
    <title>ace</title>
    <desc>Created with Sketch.</desc>
    <g id="Page-1" stroke="none" stroke-width="1" fill="none" fill-rule="evenodd" fill-opacity="0.4">
        <g id="Home" transform="translate(-412.000000, -682.000000)" fill="#1F1F1F">
            <g id="homegrown" transform="translate(222.000000, 502.000000)">
                <g id="portfolio" transform="translate(0.000000, 157.000000)">
                    <g id="ace" transform="translate(160.000000, 0.000000)">
                        <g id="Group" transform="translate(30.000000, 23.000000)">
                            <g id="ace" transform="translate(0.000000, 0.728000)">
                                <g transform="translate(0.000000, 1.272000)">
                                    <path d="M39.0952216,11.0390404 L35.7454214,7.10724028 L37.5802215,5.54424022 L39.4390216,7.72644031 L43.9468217,3.27144013 L45.5104218,5.1062402 L39.0952216,11.0390404 Z M44.5102218,0.00024000001 L35.9764214,0.00024000001 C34.6882214,0.00024000001 33.6430213,1.04484004 33.6430213,2.33304009 L33.6430213,10.8674404 C33.6430213,12.1556405 34.6882214,13.2008405 35.9764214,13.2008405 L44.5102218,13.2008405 C45.7990218,13.2008405 46.8436219,12.1556405 46.8436219,10.8674404 L46.8436219,2.33304009 C46.8436219,1.04484004 45.7990218,0.00024000001 44.5102218,0.00024000001 L44.5102218,0.00024000001 Z" id="Fill-1"></path>
                                    <path d="M10.5149404,8.43102034 L8.24214033,8.43102034 L8.24214033,10.7038204 L5.21214021,10.7038204 L5.21214021,8.43102034 L2.93874012,8.43102034 L2.93874012,5.40042021 L5.21214021,5.40042021 L5.21214021,3.12762012 L8.24214033,3.12762012 L8.24214033,5.40042021 L10.5149404,5.40042021 L10.5149404,8.43102034 Z M10.8671404,-0.000180000007 L2.33334009,-0.000180000007 C1.04454004,-0.000180000007 -6.00000025e-05,1.04442004 -6.00000025e-05,2.33322009 L-6.00000025e-05,10.8676204 C-6.00000025e-05,12.1558205 1.04454004,13.2004205 2.33334009,13.2004205 L10.8671404,13.2004205 C12.1559405,13.2004205 13.2005405,12.1558205 13.2005405,10.8676204 L13.2005405,2.33322009 C13.2005405,1.04442004 12.1559405,-0.000180000007 10.8671404,-0.000180000007 L10.8671404,-0.000180000007 Z" id="Fill-4"></path>
                                    <path d="M19.5024008,8.22474033 L28.0422011,8.22474033 L28.0422011,5.47014022 L19.5024008,5.47014022 L19.5024008,8.22474033 Z M28.0908011,-6.00000024e-05 L19.5576008,-6.00000024e-05 C18.2688007,-6.00000024e-05 17.2242007,1.04454004 17.2242007,2.33334009 L17.2242007,10.8671404 C17.2242007,12.1559405 18.2688007,13.2005405 19.5576008,13.2005405 L28.0908011,13.2005405 C29.3796012,13.2005405 30.4248012,12.1559405 30.4248012,10.8671404 L30.4248012,2.33334009 C30.4248012,1.04454004 29.3796012,-6.00000024e-05 28.0908011,-6.00000024e-05 L28.0908011,-6.00000024e-05 Z" id="Fill-7"></path>
                                </g>
                                <path d="M60.82,16.272 L61.828,13.56 L68.692,13.56 L69.676,16.272 L73.564,16.272 L67.396,0.264 L63.124,0.264 L56.932,16.272 L60.82,16.272 Z M67.756,10.56 L62.764,10.56 L65.26,3.672 L67.756,10.56 Z M82.804,16.56 C86.332,16.56 88.348,14.616 89.5,12.624 L86.572,11.208 C85.9,12.528 84.46,13.536 82.804,13.536 C79.9,13.536 77.788,11.304 77.788,8.28 C77.788,5.256 79.9,3.024 82.804,3.024 C84.46,3.024 85.9,4.056 86.572,5.352 L89.5,3.912 C88.372,1.92 86.332,-2.84217094e-14 82.804,-2.84217094e-14 C78.004,-2.84217094e-14 74.284,3.36 74.284,8.28 C74.284,13.2 78.004,16.56 82.804,16.56 Z M102.868,16.272 L102.868,13.272 L94.948,13.272 L94.948,9.648 L102.7,9.648 L102.7,6.648 L94.948,6.648 L94.948,3.264 L102.868,3.264 L102.868,0.264 L91.54,0.264 L91.54,16.272 L102.868,16.272 Z" id="ACE" fill-rule="nonzero"></path>
                            </g>
                        </g>
                    </g>
                </g>
            </g>
        </g>
    </g>
</svg>