<?xml version="1.0" encoding="UTF-8"?>
<svg width="52px" height="27px" viewBox="0 0 52 27" version="1.1" xmlns="http://www.w3.org/2000/svg" xmlns:xlink="http://www.w3.org/1999/xlink">
    <!-- Generator: Sketch 63.1 (92452) - https://sketch.com -->
    <title>Give</title>
    <desc>Created with Sketch.</desc>
    <g id="Page-1" stroke="none" stroke-width="1" fill="none" fill-rule="evenodd" fill-opacity="0.4">
        <g id="Home" transform="translate(-252.000000, -674.000000)" fill="#1F1F1F" fill-rule="nonzero">
            <g id="homegrown" transform="translate(222.000000, 502.000000)">
                <g id="portfolio" transform="translate(0.000000, 157.000000)">
                    <g id="give">
                        <path d="M40.2167969,41.8125 C40.6777344,41.8125 41.1074219,41.7148438 41.5058594,41.5195312 C43.4277344,40.6914062 44.9316406,39.1953125 46.0175781,37.03125 C47.9550781,32.6640625 48.9238281,29.3984375 48.9238281,27.234375 C48.9082031,26.6640625 48.8457031,26.1289062 48.7363281,25.6289062 C48.7363281,25.4570312 48.5019531,25.3710938 48.0332031,25.3710938 C46.5644531,25.3710938 45.0292969,25.4726562 43.4277344,25.6757812 C40.4355469,26.1289062 38.9394531,26.9609375 38.9394531,28.171875 L38.9394531,28.171875 L38.9394531,28.21875 C38.9394531,28.3984375 39.0761719,28.6015625 39.3496094,28.828125 C39.9589844,29.015625 40.2636719,29.2617188 40.2636719,29.5664062 L40.2636719,29.5664062 L40.2636719,29.7070312 C43.0449219,29.1210938 44.9003906,28.7617188 45.8300781,28.6289062 C45.5253906,30.3554688 45.2285156,31.6679688 44.9394531,32.5664062 C43.4863281,36.8554688 41.8769531,39 40.1113281,39 C39.3457031,39 38.5957031,38.609375 37.8613281,37.828125 C35.5097656,34.9609375 34.3339844,31.4492188 34.3339844,27.2929688 L34.3339844,27.2929688 L34.3339844,26.8125 C34.3339844,24.0234375 34.9667969,21.8710938 36.2324219,20.3554688 C36.7089844,19.6992188 37.4511719,19.2421875 38.4589844,18.984375 L38.4589844,18.984375 L38.7050781,19.125 C39.3769531,19.4296875 39.9199219,20.1835938 40.3339844,21.3867188 C41.0683594,23.0351562 41.6660156,23.859375 42.1269531,23.859375 L42.1269531,23.859375 L42.1855469,23.859375 C42.2949219,23.859375 42.4941406,23.7617188 42.7832031,23.5664062 C42.8925781,23.5039062 43.2675781,23.0546875 43.9082031,22.21875 C43.9082031,21.6953125 43.6933594,20.8476562 43.2636719,19.6757812 C41.9355469,17.0507812 40.2792969,15.7382812 38.2949219,15.7382812 L38.2949219,15.7382812 L37.9550781,15.7382812 C36.5488281,15.7382812 35.2207031,16.3632812 33.9707031,17.6132812 C31.9394531,20.0976562 30.9238281,23.3242188 30.9238281,27.2929688 L30.9238281,27.2929688 L30.9238281,27.796875 C30.9238281,31.9375 32.3144531,35.8554688 35.0957031,39.5507812 C36.7128906,41.0585938 38.3691406,41.8125 40.0644531,41.8125 L40.0644531,41.8125 L40.2167969,41.8125 Z M51.8769531,23.5664062 C53.1503906,23.3398438 53.7871094,22.9257812 53.7871094,22.3242188 L53.7871094,22.3242188 L53.6464844,21.7382812 C53.4902344,21.3398438 53.0097656,21.140625 52.2050781,21.140625 L52.2050781,21.140625 L51.9238281,21.140625 C50.9472656,21.140625 50.3378906,21.5195312 50.0957031,22.2773438 L50.0957031,22.2773438 L50.0957031,22.5351562 L50.1425781,22.7226562 C50.1425781,23.2226562 50.6074219,23.5039062 51.5371094,23.5664062 L51.5371094,23.5664062 L51.8769531,23.5664062 Z M51.9238281,40.171875 L52.2753906,39.796875 C52.7753906,39.6953125 53.1542969,39.5585938 53.4121094,39.3867188 L53.4121094,39.3867188 L53.5058594,34.3242188 L53.5058594,32.953125 C53.5058594,30.6640625 53.3222656,28.4804688 52.9550781,26.4023438 C52.9550781,26.0820312 52.6425781,25.921875 52.0175781,25.921875 C51.1035156,25.921875 50.6464844,26.578125 50.6464844,27.890625 C50.6464844,29.453125 50.6777344,30.6132812 50.7402344,31.3710938 L50.7402344,31.3710938 L50.3066406,37.125 C50.3066406,38.515625 50.5488281,39.421875 51.0332031,39.84375 C51.0957031,39.84375 51.1269531,39.7460938 51.1269531,39.5507812 C51.3535156,39.9648438 51.6035156,40.171875 51.8769531,40.171875 L51.8769531,40.171875 L51.9238281,40.171875 Z M60.4785156,39.8203125 C61.6113281,39.8203125 62.5644531,38.6171875 63.3378906,36.2109375 C64.1816406,32.6328125 64.9316406,30.5703125 65.5878906,30.0234375 L65.5878906,30.0234375 L65.4941406,29.5898438 C65.5097656,29.4335938 65.6386719,29.0195312 65.8808594,28.3476562 C65.5136719,27.6914062 65.0878906,27.3632812 64.6035156,27.3632812 L64.6035156,27.3632812 L64.1699219,27.3632812 L63.6660156,27.4101562 C63.3144531,27.4101562 62.8769531,28.1523438 62.3535156,29.6367188 C61.6816406,32.3242188 60.8730469,33.9804688 59.9277344,34.6054688 L59.9277344,34.6054688 L59.4941406,34.0078125 L56.9746094,29.3789062 C55.3105469,29.3789062 54.4785156,29.859375 54.4785156,30.8203125 L54.4785156,30.8203125 L54.4785156,31.1953125 C54.4785156,31.8046875 55.3183594,33.3828125 56.9980469,35.9296875 C58.3261719,38.5234375 59.4863281,39.8203125 60.4785156,39.8203125 Z M73.8378906,39.4804688 C74.1894531,39.4804688 74.6464844,39.4179688 75.2089844,39.2929688 C76.9199219,38.6992188 78.2167969,37.6796875 79.0996094,36.234375 C79.0996094,35.984375 79.3144531,35.8085938 79.7441406,35.7070312 C79.8066406,35.3710938 79.9199219,35.0625 80.0839844,34.78125 C81.0058594,33.5625 81.4667969,32.6875 81.4667969,32.15625 L81.4667969,32.15625 L81.4667969,32.109375 L81.3730469,32.109375 C81.3105469,32.4453125 81.1738281,32.6132812 80.9628906,32.6132812 C80.8535156,32.5820312 80.7910156,32.5273438 80.7753906,32.4492188 L80.7753906,32.4492188 L80.8222656,32.2617188 L80.8222656,31.78125 L80.7285156,31.6757812 L80.6347656,31.6757812 C80.1191406,31.6757812 79.3652344,32.2304688 78.3730469,33.3398438 C76.7714844,35.6054688 75.2597656,36.7382812 73.8378906,36.7382812 C72.8144531,36.7382812 71.9746094,36.1953125 71.3183594,35.109375 L71.3183594,35.109375 L71.3183594,35.0625 C73.7480469,34.1015625 74.9628906,32.8398438 74.9628906,31.2773438 C74.9628906,30.9023438 74.8691406,30.3789062 74.6816406,29.7070312 C73.6582031,27.5820312 72.3300781,26.5195312 70.6972656,26.5195312 C69.8769531,26.5195312 68.9238281,26.8242188 67.8378906,27.4335938 C66.8300781,27.8164062 66.3261719,28.7851562 66.3261719,30.3398438 L66.3261719,30.3398438 L66.3261719,30.6914062 L66.5605469,34.4882812 C68.7871094,37.8164062 71.0527344,39.4804688 73.3574219,39.4804688 L73.3574219,39.4804688 L73.8378906,39.4804688 Z M70.0410156,33.09375 C69.5175781,32.7109375 69.2558594,32.0546875 69.2558594,31.125 C69.2558594,30.53125 69.3417969,30.078125 69.5136719,29.765625 C69.5136719,29.4609375 69.7558594,29.3085938 70.2402344,29.3085938 L70.2402344,29.3085938 L70.6035156,29.3554688 C71.4472656,29.7226562 71.8691406,30.3789062 71.8691406,31.3242188 C71.8691406,31.5585938 71.8066406,31.8710938 71.6816406,32.2617188 C70.9394531,32.8164062 70.3925781,33.09375 70.0410156,33.09375 Z" id="Give"></path>
                    </g>
                </g>
            </g>
        </g>
    </g>
</svg>