<?xml version="1.0" encoding="UTF-8"?>
<svg width="208px" height="23px" viewBox="0 0 208 23" version="1.1" xmlns="http://www.w3.org/2000/svg" xmlns:xlink="http://www.w3.org/1999/xlink">
    <!-- Generator: Sketch 63.1 (92452) - https://sketch.com -->
    <title>prepurchasing</title>
    <desc>Created with Sketch.</desc>
    <g id="Page-1" stroke="none" stroke-width="1" fill="none" fill-rule="evenodd">
        <g id="Home" transform="translate(-241.000000, -770.000000)">
            <g id="homegrown" transform="translate(222.000000, 502.000000)">
                <g id="portfolio" transform="translate(0.000000, 157.000000)">
                    <g id="prepurchasing" transform="translate(0.000000, 94.000000)">
                        <g transform="translate(19.000000, 17.000000)" id="Group-2">
                            <g>
                                <g id="Group-14" fill="#9B9B9B">
                                    <path d="M28.9315013,14.9625358 C24.5221822,14.6907816 20.7635163,14.999677 17.4477152,15.2718926 C16.3604508,15.3611701 15.3337321,15.445603 14.380919,15.4993541 C9.24988377,15.7902556 6.24988678,15.6292332 5.2112295,15.0068285 C3.43522219,13.9431116 4.22856988,12.2493771 4.26665967,12.1711728 C4.26665967,12.1711728 4.26665967,12.1709421 4.26665967,12.1707115 L4.00258944,12.0855864 L3.73851921,12 C3.72828613,12.0207622 2.7368147,14.098136 4.87353797,15.3782412 C4.89457262,15.3906985 4.92072382,15.4017717 4.94289549,15.414229 C4.92385059,15.4169973 4.90366869,15.4190735 4.88661356,15.4227646 C4.80304344,15.4423734 4.63533468,15.4873581 4.64386225,15.5787118 C4.6845103,16.026022 4.64698902,16.4735628 4.53414092,16.9125681 C4.49718815,17.0569807 5.04551051,16.9850051 5.08075777,16.8484359 C5.19133185,16.4175048 5.22828463,15.9755006 5.19644839,15.5358033 C6.54920427,16.1028421 9.50571068,16.2377964 14.4201458,15.9598136 C15.3823392,15.9053705 16.4133217,15.8207068 17.5048499,15.730968 C20.7973423,15.460598 24.5290043,15.1540094 28.9098981,15.423226 C28.9440084,15.423226 32.335989,15.4444496 34.6355888,17 L35,16.6454277 C32.5665175,14.9999077 29.1361628,14.9625358 28.9374706,14.9625358 L28.9315013,14.9625358 Z" id="Fill-1"></path>
                                    <path d="M5.30251873,18.6613455 C5.18535366,18.8566999 5.04525416,19.046179 4.89343815,19.2051064 C4.58307537,19.5303054 4.23831093,19.6666129 3.84418759,19.4598016 C3.46028504,19.2582781 3.11626846,18.8323173 2.94126873,18.3852054 C2.88792123,18.2488979 2.84928169,18.1002523 2.831333,17.9519005 C2.8233558,17.8869782 2.82086293,17.8226434 2.82285723,17.7571336 C2.82385438,17.7286383 2.82510081,17.7004367 2.8273444,17.6719414 C2.82958798,17.6484401 2.83233015,17.6249389 2.83507231,17.6014376 C2.8687261,17.594681 2.90287847,17.5826366 2.93653227,17.5747049 C3.00782846,17.5576664 3.07937393,17.545622 3.15166727,17.536809 C3.30049183,17.5183018 3.45056283,17.513014 3.60013526,17.5238833 C3.68065508,17.5294649 3.77338998,17.5068449 3.84069757,17.4475042 C4.26822542,17.5626605 4.67032595,17.7894478 5.01658611,18.1061276 C5.15169987,18.2295094 5.43713391,18.4369082 5.30251873,18.6613455 M4.97021866,17.4433914 C4.65960659,17.2398116 4.33279084,17.0976288 3.9862814,17.0068551 C3.89603937,16.98306 3.80928736,17.0238935 3.7492091,17.0879345 C3.40469395,17.0641395 3.04596942,17.0814717 2.71217363,17.1945716 C2.38984506,17.303265 2.31456027,17.5993812 2.33699614,17.9630636 C2.38012285,18.6563515 2.79543561,19.2882422 3.27282093,19.6657316 C3.7868515,20.0723038 4.40408703,20.1237129 4.93656486,19.733004 C5.1786229,19.5555693 5.38353712,19.3182064 5.56601548,19.0614548 C5.75672032,18.7926589 5.95290948,18.4933113 5.74276023,18.1572429 C5.55529612,17.8578953 5.24194189,17.6217074 4.97021866,17.4433914" id="Fill-3"></path>
                                    <path d="M29.9144125,17.5278056 C29.4909125,17.3739167 28.9921625,17.3228056 28.5453292,17.25975 C28.5021625,17.2539167 28.4517042,17.2603056 28.4015375,17.27225 C28.5494125,17.0205833 28.5301625,16.7200278 28.5319125,16.43225 C28.5339542,16.0355833 28.5357042,15.6386389 28.5377458,15.2419722 C28.5386208,15.1116944 28.3992042,15.0686389 28.2807875,15.0783611 C28.1772458,15.0864167 27.9692875,15.15975 27.9684125,15.2880833 C27.9666625,15.6575278 27.9646208,16.0269722 27.9628708,16.3961389 C27.9619958,16.5580833 27.9663708,16.7208611 27.9570375,16.8825278 C27.9497458,17.0080833 27.9366208,17.1480833 27.8476625,17.2478056 C27.7657042,17.3403056 27.7937042,17.45475 27.9170792,17.4941944 C27.9899958,17.5175278 28.0798292,17.5105833 28.1609125,17.4844722 C28.1632458,17.5630833 28.2536625,17.6066944 28.3414542,17.6191944 C28.5371625,17.6469722 28.7322875,17.6775278 28.9265375,17.71475 C29.1024125,17.7483611 29.3366208,17.7630833 29.4979125,17.8378056 C29.5819125,17.8769722 29.5921208,17.8930833 29.5620792,17.9858611 C29.5399125,18.0553056 29.4949958,18.1239167 29.4597042,18.1880833 C29.3929125,18.3094722 29.3197042,18.4275278 29.2397875,18.5411389 C28.8798708,19.05225 28.3417458,19.4819722 27.6957042,19.6033611 C27.4005375,19.6586389 27.0680375,19.6525278 26.7962042,19.5178056 C26.5097875,19.3761389 26.3622042,19.1050278 26.3076625,18.8116944 C26.2761625,18.6436389 26.2799542,18.4733611 26.2954125,18.3039167 C26.3035792,18.2114167 26.3164125,18.1191944 26.3298292,18.02725 C26.3374125,17.9744722 26.3327458,17.8519722 26.3694958,17.8089167 C26.4021625,17.7700278 26.5605375,17.7525278 26.6109958,17.73975 C26.6973292,17.7180833 26.7848292,17.6986389 26.8726208,17.6839167 C27.0528708,17.6539167 27.2383708,17.6380833 27.4212458,17.6378056 C27.5507458,17.63725 27.7266208,17.6041944 27.7899125,17.47975 C27.8456208,17.36975 27.7412042,17.2778056 27.6248292,17.2783611 C27.2272875,17.2794722 26.8341208,17.3214167 26.4505792,17.4250278 C26.2907458,17.4680833 26.1093292,17.5116944 25.9748708,17.6094722 C25.8115375,17.7286389 25.7884958,17.8950278 25.7616625,18.0775278 C25.6680375,18.7144722 25.6916625,19.49225 26.3832042,19.82225 C27.0164125,20.1244722 27.8179125,20.0078056 28.4344958,19.7233611 C29.0784958,19.4264167 29.5859958,18.9244722 29.9345375,18.33475 C30.0829958,18.0839167 30.3227458,17.6758611 29.9144125,17.5278056" id="Fill-5"></path>
                                    <path d="M12.0523945,1.7826 C14.8746789,1.59185 17.6946514,1.4356 20.5264725,1.40585 C23.3854587,1.3761 26.2456009,1.4491 29.0973624,1.62535 C30.4998349,1.7121 31.9002844,1.82335 33.2972661,1.95935 C33.5891468,1.98785 34.0318807,1.9561 34.1925596,2.2116 C34.3104679,2.3986 34.2812798,2.63985 34.244867,2.84235 C34.1454541,3.3951 33.9651239,3.9456 33.8084908,4.4881 C33.3914771,5.9311 32.8947018,7.3556 32.3285688,8.75935 C31.3636284,8.5831 30.3960872,8.41935 29.425945,8.2671 C29.5580138,7.8026 29.6707202,7.33385 29.7591514,6.8616 C30.0212661,5.4681 30.0903349,4.0521 29.9770505,2.6441 C29.9680917,2.53085 29.4068716,2.62085 29.4190092,2.7736 C29.5337385,4.20385 29.4600459,5.64035 29.1834817,7.05435 C29.108922,7.4346 29.0190459,7.81235 28.9164541,8.1876 C27.850078,8.02485 26.7808119,7.8771 25.708945,7.74385 C25.7127018,7.73135 25.7170367,7.71885 25.7207936,7.7061 C26.1623716,6.1731 26.085211,4.5436 26.8261835,3.07585 C26.8995872,2.93085 26.3470367,2.9821 26.2684312,3.13785 C25.5416193,4.57735 25.5991284,6.1726 25.1864495,7.6801 C23.8833899,7.5241 22.5771514,7.38985 21.2686009,7.27735 C21.3047248,7.17335 21.3394037,7.06935 21.3781284,6.9661 C21.6272385,6.2986 21.9113165,5.6396 22.0873119,4.95335 C22.274,4.22535 22.3630092,3.48235 22.6008486,2.76435 C22.6702064,2.5541 22.1020505,2.6136 22.0376055,2.8086 C21.8061239,3.50785 21.7148028,4.23085 21.5382294,4.94035 C21.3625229,5.6471 21.0712202,6.32435 20.8145963,7.0106 C20.7874312,7.0841 20.763156,7.15835 20.7368578,7.23185 C19.6797294,7.14585 18.620867,7.0756 17.5608486,7.0181 C18.0067615,5.68135 18.2454679,4.27835 18.5168303,2.91385 C18.524344,2.8771 17.9865321,2.9026 17.9585,3.04335 C17.6969633,4.3576 17.4591239,5.69935 17.043844,6.9901 C16.0118578,6.9391 14.9792936,6.9026 13.9458624,6.8791 C14.3013211,5.63185 14.6394404,4.38185 14.8674541,3.1111 C14.8980872,2.9411 14.3383119,3.02635 14.3108578,3.1781 C14.0880459,4.42235 13.7588853,5.64685 13.4118073,6.8681 C12.8384495,6.8576 12.2650917,6.84985 11.6917339,6.84785 C11.5426147,6.84735 11.3940734,6.8491 11.2449541,6.8491 C11.4212385,5.57435 11.4992661,4.28735 11.8370963,3.03335 C11.9029862,2.78835 11.3304954,2.8401 11.2698073,3.0651 C10.934867,4.3091 10.8542385,5.58585 10.681133,6.8506 C9.8473945,6.85485 9.01423394,6.8681 8.18107339,6.8901 C8.3697844,5.70685 8.67698165,4.52785 8.64548165,3.33185 C8.63883486,3.0856 8.07501376,3.1636 8.08079358,3.37185 C8.11200459,4.5596 7.80943119,5.7306 7.62043119,6.90535 C7.01672936,6.92385 6.41331651,6.9456 5.81019266,6.97335 C5.51195413,6.98685 5.36456881,7.3046 5.74834862,7.2871 C6.35667431,7.25885 6.96557798,7.2376 7.57477064,7.2191 C7.56061009,7.3201 7.54500459,7.4211 7.53344495,7.52185 C7.45599541,8.19785 7.36929817,8.8681 7.15746789,9.52435 C6.94737156,10.1746 6.67600917,10.80835 6.54625229,11.47635 C6.54105046,11.50385 6.54567431,11.5261 6.55521101,11.54535 C6.20408716,11.4976 5.86510092,11.42335 5.55819266,11.2961 C4.57215596,10.8866 4.30512844,9.92135 4.42274771,9.04985 C4.50019725,8.47485 4.70451376,7.9171 4.88195413,7.3606 C5.06315138,6.78985 5.24174771,6.2186 5.41600917,5.6466 C5.77146789,4.4831 6.11189908,3.31585 6.4390367,2.14585 C6.45695413,2.08235 6.41938532,2.04485 6.35985321,2.02485 C8.25910092,2.0236 10.1577706,1.91085 12.0523945,1.7826 M31.1315688,11.47435 C31.1142294,11.4726 31.1009358,11.4686 31.0809954,11.46885 C28.9095183,11.49435 26.7383303,11.53185 24.5674312,11.5696 C24.6966101,11.0811 24.8084495,10.58935 24.9373394,10.10035 C25.1185367,9.41285 25.3858532,8.7476 25.6051972,8.0701 C25.8522844,8.1011 26.0993716,8.13135 26.3464587,8.1636 C27.1735505,8.2731 27.9989083,8.39335 28.8222431,8.52085 C28.7676239,8.7056 28.7101147,8.89035 28.6485596,9.0736 C28.4205459,9.75185 28.1561193,10.4196 28.0630642,11.12485 C28.0437018,11.2731 28.5994312,11.18085 28.6164817,11.04885 C28.7095367,10.3436 28.9742523,9.6761 29.2019771,8.9976 C29.2464817,8.8651 29.2878073,8.73185 29.328555,8.59835 C30.2865596,8.75085 31.2419633,8.9151 32.1947661,9.0911 C31.8641606,9.8931 31.5084128,10.68735 31.1315688,11.47435 M16.2713716,11.6946 C16.2696376,11.6946 16.2681927,11.6946 16.2664587,11.69485 C16.2326468,11.07035 16.2973807,10.44585 16.4748211,9.83585 C16.6961881,9.07385 17.0585826,8.3506 17.3484404,7.60785 C17.3831193,7.5181 17.4137523,7.42735 17.4464083,7.3371 C18.5067156,7.3946 19.565867,7.4681 20.6235734,7.5546 C20.2149404,8.79385 19.975078,10.0681 19.8716193,11.35485 C19.8525459,11.5881 20.4183899,11.51035 20.4348624,11.31035 C20.5357202,10.0541 20.7683578,8.8096 21.1596514,7.59835 C22.4719587,7.7116 23.7816651,7.8471 25.0879037,8.0051 C24.8682706,8.70735 24.5847706,9.39385 24.3946147,10.1041 C24.2634128,10.5946 24.1518624,11.0886 24.0235505,11.5791 C21.4393945,11.6241 18.8555275,11.6686 16.2713716,11.6946 M12.6618761,11.7046 C12.6705459,11.6936 12.6812385,11.68285 12.6838394,11.67085 C12.9878578,10.1636 13.4288578,8.68235 13.8551193,7.1981 C14.8839266,7.2226 15.911867,7.26035 16.9395183,7.3116 C16.8690046,7.51435 16.793578,7.71535 16.7123716,7.9146 C16.4181789,8.6356 16.0742798,9.34485 15.8795,10.09285 C15.7419404,10.6221 15.6881881,11.1601 15.7058165,11.6986 C14.6911697,11.70685 13.6765229,11.71035 12.6618761,11.7046 M10.0739633,10.99535 C10.3219174,10.1086 10.7386422,9.26635 10.9626101,8.37285 C11.0628899,7.97335 11.1362936,7.5701 11.1987156,7.1656 C11.9061651,7.1661 12.6136147,7.17285 13.3213532,7.1861 C12.8916239,8.6841 12.445133,10.1791 12.1356239,11.69985 C11.3952294,11.6936 10.6545459,11.68135 9.91415138,11.66435 C9.9606789,11.4401 10.0121193,11.21685 10.0739633,10.99535 M8.81743119,11.6381 C8.23251376,11.6201 7.57650459,11.63785 6.94216972,11.58735 C7.02713303,11.5551 7.09764679,11.5046 7.11094037,11.4366 C7.23722936,10.7871 7.49645413,10.16985 7.70423853,9.53835 C7.9258945,8.8641 8.01808257,8.17735 8.09784404,7.4821 C8.10882569,7.38885 8.12298624,7.29585 8.13599083,7.20285 C8.96915138,7.18185 9.80260092,7.16985 10.6360505,7.16635 C10.5727615,7.58135 10.4979128,7.99485 10.3956101,8.4046 C10.1725092,9.29785 9.75376147,10.1401 9.50667431,11.0271 C9.44916514,11.23385 9.40148165,11.4421 9.35784404,11.6511 C9.17751376,11.6461 8.99747248,11.6436 8.81743119,11.6381 M3.69795872,1.9441 C4.50453211,1.99835 5.3111055,2.0211 6.11738991,2.02485 C6.00352752,2.05135 5.89804587,2.1081 5.87550459,2.1886 C5.57611009,3.25935 5.26544495,4.3281 4.94235321,5.3936 C4.62244037,6.4496 4.23172477,7.4991 3.96325229,8.56585 C3.75228899,9.4036 3.7300367,10.3846 4.40454128,11.0806 C5.02847248,11.7246 6.05005505,11.8586 6.96442202,11.9071 C7.73833945,11.9481 8.51370183,11.9766 9.28906422,11.99985 C9.18155963,12.56585 9.09081651,13.13435 8.94227523,13.69385 C8.87725229,13.9391 9.44974312,13.8871 9.50927523,13.6621 C9.65377064,13.11785 9.74364679,12.5646 9.8471055,12.0141 C11.8061743,12.06285 13.768133,12.0651 15.7300917,12.0431 C15.7399174,12.1521 15.7459862,12.26085 15.7618807,12.3696 C15.7737294,12.4496 16.3369725,12.35535 16.320211,12.2401 C16.3100963,12.1726 16.3031606,12.10485 16.2956468,12.03735 C18.3021101,12.01085 20.3079954,11.9651 22.3095459,11.92735 C22.8516927,11.9171 23.3941284,11.90985 23.9362752,11.90085 C23.8651835,12.15185 23.7883119,12.40185 23.6964128,12.6486 C23.6360138,12.8106 24.194633,12.74735 24.2544541,12.5866 C24.3397064,12.3571 24.4125321,12.1251 24.479578,11.8921 C26.6444083,11.85685 28.8089495,11.8266 30.9743578,11.8011 C30.9414128,11.86785 30.9107798,11.93485 30.8778349,12.00135 C30.7492339,12.26135 31.3113211,12.27435 31.4144908,12.0656 C32.5080321,9.8531 33.4183532,7.5766 34.1373624,5.2521 C34.3188486,4.66585 34.4876193,4.0766 34.6442523,3.4851 C34.7558028,3.06235 34.9563624,2.5556 34.7768991,2.1251 C34.5954128,1.68935 34.0908349,1.65235 33.6275826,1.60685 C32.8701376,1.5321 32.1115367,1.46485 31.3520688,1.40435 C25.5381514,0.94385 19.6878211,0.9156 13.8663899,1.2931 C10.5470413,1.5081 7.21642202,1.80185 3.88638073,1.57785 C3.60230275,1.5586 3.32169266,1.91885 3.69795872,1.9441" id="Fill-8"></path>
                                    <path d="M0.873734615,3.4982 C0.601003846,3.40848571 0.544465385,3.1682 0.534773077,2.89162857 C0.524273077,2.5902 0.518619231,2.28562857 0.561426923,1.9862 C0.609619231,1.64905714 0.729696154,1.3582 0.95935,1.11677143 C1.15292692,0.913628571 1.37288846,0.743057143 1.55354231,0.527914286 C1.96950385,0.694771429 2.35046538,0.976485714 2.56396538,1.40048571 C2.83804231,1.94534286 2.77558077,2.60134286 2.34158077,3.02534286 C1.98404231,3.37448571 1.36319615,3.65877143 0.873734615,3.4982 M3.19935,1.56362857 C2.99419615,0.783914286 2.31600385,0.290771429 1.61115769,0.0876285714 C1.48892692,0.0522 1.32900385,0.0870571429 1.24338846,0.1922 C1.21996538,0.221057143 1.20946538,0.252771429 1.20461923,0.2842 C0.998119231,0.573057143 0.707080769,0.767342857 0.475542308,1.03048571 C0.248042308,1.28905714 0.110196154,1.60648571 0.0490807692,1.95277143 C-0.0155346154,2.31934286 -0.00449615385,2.70191429 0.0154269231,3.07248571 C0.0340038462,3.42477143 0.172657692,3.6822 0.48685,3.81962857 C1.11738846,4.09534286 1.94527308,3.80877143 2.47835,3.42191429 C3.06446538,2.99677143 3.39723462,2.3162 3.19935,1.56362857" id="Fill-11"></path>
                                </g>
                                <path d="M55.6,18 L55.6,12.312 L59.68,12.312 C63.136,12.312 65.056,9.936 65.056,7.152 C65.056,4.344 63.16,1.992 59.68,1.992 L52.192,1.992 L52.192,18 L55.6,18 Z M59.224,9.312 L55.6,9.312 L55.6,4.992 L59.224,4.992 C60.568,4.992 61.576,5.808 61.576,7.152 C61.576,8.472 60.568,9.312 59.224,9.312 Z M70.144,18 L70.144,10.344 C70.648,9.6 71.992,9.024 73,9.024 C73.336,9.024 73.624,9.048 73.84,9.096 L73.84,6.12 C72.4,6.12 70.96,6.96 70.144,7.992 L70.144,6.408 L67.096,6.408 L67.096,18 L70.144,18 Z M81.184,18.288 C82.984,18.288 84.808,17.736 85.96,16.68 L84.616,14.712 C83.872,15.432 82.504,15.864 81.52,15.864 C79.552,15.864 78.376,14.64 78.184,13.176 L86.8,13.176 L86.8,12.504 C86.8,8.712 84.448,6.12 80.992,6.12 C77.464,6.12 74.992,8.832 74.992,12.192 C74.992,15.912 77.656,18.288 81.184,18.288 Z M83.848,11.112 L78.136,11.112 C78.28,9.96 79.096,8.544 80.992,8.544 C83.008,8.544 83.776,10.008 83.848,11.112 Z M92.488,18 L92.488,12.312 L96.568,12.312 C100.024,12.312 101.944,9.936 101.944,7.152 C101.944,4.344 100.048,1.992 96.568,1.992 L89.08,1.992 L89.08,18 L92.488,18 Z M96.112,9.312 L92.488,9.312 L92.488,4.992 L96.112,4.992 C97.456,4.992 98.464,5.808 98.464,7.152 C98.464,8.472 97.456,9.312 96.112,9.312 Z M107.728,18.288 C109.624,18.288 111.016,17.424 111.808,16.536 L111.808,18 L114.856,18 L114.856,6.408 L111.808,6.408 L111.808,14.256 C111.28,14.928 110.344,15.576 109.168,15.576 C107.872,15.576 107.032,15.048 107.032,13.44 L107.032,6.408 L103.984,6.408 L103.984,14.64 C103.984,16.896 105.184,18.288 107.728,18.288 Z M120.928,18 L120.928,10.344 C121.432,9.6 122.776,9.024 123.784,9.024 C124.12,9.024 124.408,9.048 124.624,9.096 L124.624,6.12 C123.184,6.12 121.744,6.96 120.928,7.992 L120.928,6.408 L117.88,6.408 L117.88,18 L120.928,18 Z M131.92,18.288 C134.296,18.288 135.736,17.256 136.504,16.176 L134.512,14.328 C133.96,15.096 133.12,15.576 132.064,15.576 C130.216,15.576 128.92,14.208 128.92,12.192 C128.92,10.176 130.216,8.832 132.064,8.832 C133.12,8.832 133.96,9.264 134.512,10.08 L136.504,8.208 C135.736,7.152 134.296,6.12 131.92,6.12 C128.344,6.12 125.776,8.64 125.776,12.192 C125.776,15.768 128.344,18.288 131.92,18.288 Z M141.544,18 L141.544,10.2 C142.072,9.504 143.008,8.832 144.184,8.832 C145.504,8.832 146.344,9.336 146.344,10.944 L146.344,18 L149.392,18 L149.392,9.768 C149.392,7.512 148.168,6.12 145.624,6.12 C143.728,6.12 142.288,7.032 141.544,7.92 L141.544,1.992 L138.496,1.992 L138.496,18 L141.544,18 Z M155.704,18.288 C157.216,18.288 158.584,17.736 159.376,16.8 L159.376,18 L162.424,18 L162.424,10.512 C162.424,7.176 160,6.12 157.36,6.12 C155.536,6.12 153.712,6.696 152.296,7.944 L153.448,9.984 C154.432,9.072 155.584,8.616 156.832,8.616 C158.368,8.616 159.376,9.384 159.376,10.56 L159.376,12.12 C158.608,11.208 157.24,10.704 155.704,10.704 C153.856,10.704 151.672,11.736 151.672,14.448 C151.672,17.04 153.856,18.288 155.704,18.288 Z M156.928,16.224 C155.728,16.224 154.744,15.6 154.744,14.52 C154.744,13.392 155.728,12.768 156.928,12.768 C157.912,12.768 158.872,13.104 159.376,13.776 L159.376,15.216 C158.872,15.888 157.912,16.224 156.928,16.224 Z M169.624,18.288 C172.84,18.288 174.64,16.68 174.64,14.568 C174.64,9.888 167.776,11.328 167.776,9.6 C167.776,8.952 168.496,8.448 169.6,8.448 C171.016,8.448 172.336,9.048 173.032,9.792 L174.256,7.704 C173.104,6.792 171.544,6.12 169.576,6.12 C166.528,6.12 164.824,7.824 164.824,9.768 C164.824,14.328 171.712,12.768 171.712,14.688 C171.712,15.408 171.088,15.936 169.768,15.936 C168.328,15.936 166.6,15.144 165.76,14.352 L164.44,16.488 C165.664,17.616 167.608,18.288 169.624,18.288 Z M178.408,5.16 C179.416,5.16 180.232,4.344 180.232,3.336 C180.232,2.328 179.416,1.536 178.408,1.536 C177.424,1.536 176.584,2.328 176.584,3.336 C176.584,4.344 177.424,5.16 178.408,5.16 Z M179.944,18 L179.944,6.408 L176.896,6.408 L176.896,18 L179.944,18 Z M186.016,18 L186.016,10.2 C186.52,9.504 187.456,8.832 188.656,8.832 C189.952,8.832 190.792,9.384 190.792,10.992 L190.792,18 L193.84,18 L193.84,9.816 C193.84,7.56 192.616,6.12 190.072,6.12 C188.176,6.12 186.76,7.032 186.016,7.92 L186.016,6.408 L182.968,6.408 L182.968,18 L186.016,18 Z M201.616,22.704 C204.472,22.704 207.88,21.624 207.88,17.208 L207.88,6.408 L204.808,6.408 L204.808,7.896 C203.872,6.72 202.624,6.12 201.232,6.12 C198.304,6.12 196.12,8.232 196.12,12.024 C196.12,15.888 198.328,17.928 201.232,17.928 C202.648,17.928 203.896,17.256 204.808,16.104 L204.808,17.28 C204.808,19.56 203.08,20.208 201.616,20.208 C200.152,20.208 198.928,19.8 197.992,18.768 L196.624,20.976 C198.088,22.248 199.624,22.704 201.616,22.704 Z M202.192,15.216 C200.464,15.216 199.264,14.016 199.264,12.024 C199.264,10.032 200.464,8.832 202.192,8.832 C203.2,8.832 204.304,9.384 204.808,10.152 L204.808,13.896 C204.304,14.64 203.2,15.216 202.192,15.216 Z" id="PrePurchasing" fill-opacity="0.4" fill="#1F1F1F" fill-rule="nonzero"></path>
                            </g>
                        </g>
                    </g>
                </g>
            </g>
        </g>
    </g>
</svg>