<?xml version="1.0" encoding="UTF-8"?>
<svg width="164px" height="59px" viewBox="0 0 164 59" version="1.1" xmlns="http://www.w3.org/2000/svg" xmlns:xlink="http://www.w3.org/1999/xlink">
    <!-- Generator: Sketch 63.1 (92452) - https://sketch.com -->
    <title>ace</title>
    <desc>Created with Sketch.</desc>
    <g id="Page-1" stroke="none" stroke-width="1" fill="none" fill-rule="evenodd">
        <g id="Home" transform="translate(-382.000000, -659.000000)">
            <g id="homegrown" transform="translate(222.000000, 502.000000)">
                <g id="portfolio" transform="translate(0.000000, 157.000000)">
                    <g id="ace" transform="translate(160.000000, 0.000000)">
                        <rect id="Rectangle-Copy-2" fill="#EFEFEF" x="0" y="0" width="164" height="59" rx="2"></rect>
                        <g id="Group" transform="translate(30.000000, 18.000000)" fill="#1F1F1F" fill-opacity="0.4">
                            <g id="ace" transform="translate(0.000000, 7.000000)">
                                <path d="M39.0952216,11.0390404 L35.7454214,7.10724028 L37.5802215,5.54424022 L39.4390216,7.72644031 L43.9468217,3.27144013 L45.5104218,5.1062402 L39.0952216,11.0390404 Z M44.5102218,0.00024000001 L35.9764214,0.00024000001 C34.6882214,0.00024000001 33.6430213,1.04484004 33.6430213,2.33304009 L33.6430213,10.8674404 C33.6430213,12.1556405 34.6882214,13.2008405 35.9764214,13.2008405 L44.5102218,13.2008405 C45.7990218,13.2008405 46.8436219,12.1556405 46.8436219,10.8674404 L46.8436219,2.33304009 C46.8436219,1.04484004 45.7990218,0.00024000001 44.5102218,0.00024000001 L44.5102218,0.00024000001 Z" id="Fill-1"></path>
                                <path d="M10.5149404,8.43102034 L8.24214033,8.43102034 L8.24214033,10.7038204 L5.21214021,10.7038204 L5.21214021,8.43102034 L2.93874012,8.43102034 L2.93874012,5.40042021 L5.21214021,5.40042021 L5.21214021,3.12762012 L8.24214033,3.12762012 L8.24214033,5.40042021 L10.5149404,5.40042021 L10.5149404,8.43102034 Z M10.8671404,-0.000180000007 L2.33334009,-0.000180000007 C1.04454004,-0.000180000007 -6.00000025e-05,1.04442004 -6.00000025e-05,2.33322009 L-6.00000025e-05,10.8676204 C-6.00000025e-05,12.1558205 1.04454004,13.2004205 2.33334009,13.2004205 L10.8671404,13.2004205 C12.1559405,13.2004205 13.2005405,12.1558205 13.2005405,10.8676204 L13.2005405,2.33322009 C13.2005405,1.04442004 12.1559405,-0.000180000007 10.8671404,-0.000180000007 L10.8671404,-0.000180000007 Z" id="Fill-4"></path>
                                <path d="M19.5024008,8.22474033 L28.0422011,8.22474033 L28.0422011,5.47014022 L19.5024008,5.47014022 L19.5024008,8.22474033 Z M28.0908011,-6.00000024e-05 L19.5576008,-6.00000024e-05 C18.2688007,-6.00000024e-05 17.2242007,1.04454004 17.2242007,2.33334009 L17.2242007,10.8671404 C17.2242007,12.1559405 18.2688007,13.2005405 19.5576008,13.2005405 L28.0908011,13.2005405 C29.3796012,13.2005405 30.4248012,12.1559405 30.4248012,10.8671404 L30.4248012,2.33334009 C30.4248012,1.04454004 29.3796012,-6.00000024e-05 28.0908011,-6.00000024e-05 L28.0908011,-6.00000024e-05 Z" id="Fill-7"></path>
                            </g>
                            <path d="M60.82,22 L61.828,19.288 L68.692,19.288 L69.676,22 L73.564,22 L67.396,5.992 L63.124,5.992 L56.932,22 L60.82,22 Z M67.756,16.288 L62.764,16.288 L65.26,9.4 L67.756,16.288 Z M82.804,22.288 C86.332,22.288 88.348,20.344 89.5,18.352 L86.572,16.936 C85.9,18.256 84.46,19.264 82.804,19.264 C79.9,19.264 77.788,17.032 77.788,14.008 C77.788,10.984 79.9,8.752 82.804,8.752 C84.46,8.752 85.9,9.784 86.572,11.08 L89.5,9.64 C88.372,7.648 86.332,5.728 82.804,5.728 C78.004,5.728 74.284,9.088 74.284,14.008 C74.284,18.928 78.004,22.288 82.804,22.288 Z M102.868,22 L102.868,19 L94.948,19 L94.948,15.376 L102.7,15.376 L102.7,12.376 L94.948,12.376 L94.948,8.992 L102.868,8.992 L102.868,5.992 L91.54,5.992 L91.54,22 L102.868,22 Z" id="ACE" fill-rule="nonzero"></path>
                        </g>
                    </g>
                </g>
            </g>
        </g>
    </g>
</svg>