<?xml version="1.0" encoding="UTF-8"?>
<svg width="145px" height="59px" viewBox="0 0 145 59" version="1.1" xmlns="http://www.w3.org/2000/svg" xmlns:xlink="http://www.w3.org/1999/xlink">
    <!-- Generator: Sketch 63.1 (92452) - https://sketch.com -->
    <title>chekhov</title>
    <desc>Created with Sketch.</desc>
    <g id="Page-1" stroke="none" stroke-width="1" fill="none" fill-rule="evenodd">
        <g id="Home" transform="translate(-807.000000, -659.000000)">
            <g id="homegrown" transform="translate(222.000000, 502.000000)">
                <g id="portfolio" transform="translate(0.000000, 157.000000)">
                    <g id="chekhov" transform="translate(585.000000, 0.000000)">
                        <rect id="Rectangle-Copy-5" fill="#EFEFEF" x="0" y="0" width="145" height="59" rx="2"></rect>
                        <path d="M35.072,37.288 C38.6,37.288 40.616,35.344 41.768,33.352 L38.84,31.936 C38.168,33.256 36.728,34.264 35.072,34.264 C32.168,34.264 30.056,32.032 30.056,29.008 C30.056,25.984 32.168,23.752 35.072,23.752 C36.728,23.752 38.168,24.784 38.84,26.08 L41.768,24.64 C40.64,22.648 38.6,20.728 35.072,20.728 C30.272,20.728 26.552,24.088 26.552,29.008 C26.552,33.928 30.272,37.288 35.072,37.288 Z M46.784,37 L46.784,29.2 C47.312,28.504 48.248,27.832 49.424,27.832 C50.744,27.832 51.584,28.336 51.584,29.944 L51.584,37 L54.632,37 L54.632,28.768 C54.632,26.512 53.408,25.12 50.864,25.12 C48.968,25.12 47.528,26.032 46.784,26.92 L46.784,20.992 L43.736,20.992 L43.736,37 L46.784,37 Z M63.104,37.288 C64.904,37.288 66.728,36.736 67.88,35.68 L66.536,33.712 C65.792,34.432 64.424,34.864 63.44,34.864 C61.472,34.864 60.296,33.64 60.104,32.176 L68.72,32.176 L68.72,31.504 C68.72,27.712 66.368,25.12 62.912,25.12 C59.384,25.12 56.912,27.832 56.912,31.192 C56.912,34.912 59.576,37.288 63.104,37.288 Z M65.768,30.112 L60.056,30.112 C60.2,28.96 61.016,27.544 62.912,27.544 C64.928,27.544 65.696,29.008 65.768,30.112 Z M73.976,37 L73.976,34.024 L75.368,32.536 L78.44,37 L82.256,37 L77.528,30.664 L82.112,25.408 L78.368,25.408 L73.976,30.568 L73.976,20.992 L70.928,20.992 L70.928,37 L73.976,37 Z M86.816,37 L86.816,29.2 C87.344,28.504 88.28,27.832 89.456,27.832 C90.776,27.832 91.616,28.336 91.616,29.944 L91.616,37 L94.664,37 L94.664,28.768 C94.664,26.512 93.44,25.12 90.896,25.12 C89,25.12 87.56,26.032 86.816,26.92 L86.816,20.992 L83.768,20.992 L83.768,37 L86.816,37 Z M103.064,37.288 C106.904,37.288 109.208,34.504 109.208,31.192 C109.208,27.904 106.904,25.12 103.064,25.12 C99.248,25.12 96.944,27.904 96.944,31.192 C96.944,34.504 99.248,37.288 103.064,37.288 Z M103.064,34.576 C101.168,34.576 100.112,33.016 100.112,31.192 C100.112,29.392 101.168,27.832 103.064,27.832 C104.96,27.832 106.04,29.392 106.04,31.192 C106.04,33.016 104.96,34.576 103.064,34.576 Z M117.752,37 L122.408,25.408 L119.12,25.408 L116.096,33.472 L113.072,25.408 L109.808,25.408 L114.464,37 L117.752,37 Z" id="Chekhov" fill-opacity="0.4" fill="#1F1F1F" fill-rule="nonzero"></path>
                    </g>
                </g>
            </g>
        </g>
    </g>
</svg>