<?xml version="1.0" encoding="UTF-8"?>
<svg width="240px" height="59px" viewBox="0 0 240 59" version="1.1" xmlns="http://www.w3.org/2000/svg" xmlns:xlink="http://www.w3.org/1999/xlink">
    <!-- Generator: Sketch 63.1 (92452) - https://sketch.com -->
    <title>commencement</title>
    <desc>Created with Sketch.</desc>
    <g id="Page-1" stroke="none" stroke-width="1" fill="none" fill-rule="evenodd">
        <g id="Home" transform="translate(-939.000000, -752.000000)">
            <g id="homegrown" transform="translate(222.000000, 502.000000)">
                <g id="portfolio" transform="translate(0.000000, 157.000000)">
                    <g id="commencement" transform="translate(717.000000, 93.000000)">
                        <rect id="Rectangle-Copy-12" fill="#EFEFEF" x="0" y="0" width="240" height="59" rx="2"></rect>
                        <path d="M39.684,39.288 C43.212,39.288 45.228,37.344 46.38,35.352 L43.452,33.936 C42.78,35.256 41.34,36.264 39.684,36.264 C36.78,36.264 34.668,34.032 34.668,31.008 C34.668,27.984 36.78,25.752 39.684,25.752 C41.34,25.752 42.78,26.784 43.452,28.08 L46.38,26.64 C45.252,24.648 43.212,22.728 39.684,22.728 C34.884,22.728 31.164,26.088 31.164,31.008 C31.164,35.928 34.884,39.288 39.684,39.288 Z M53.724,39.288 C57.564,39.288 59.868,36.504 59.868,33.192 C59.868,29.904 57.564,27.12 53.724,27.12 C49.908,27.12 47.604,29.904 47.604,33.192 C47.604,36.504 49.908,39.288 53.724,39.288 Z M53.724,36.576 C51.828,36.576 50.772,35.016 50.772,33.192 C50.772,31.392 51.828,29.832 53.724,29.832 C55.62,29.832 56.7,31.392 56.7,33.192 C56.7,35.016 55.62,36.576 53.724,36.576 Z M65.172,39 L65.172,31.2 C65.628,30.552 66.516,29.832 67.572,29.832 C68.82,29.832 69.3,30.6 69.3,31.68 L69.3,39 L72.372,39 L72.372,31.176 C72.804,30.552 73.692,29.832 74.772,29.832 C76.02,29.832 76.5,30.6 76.5,31.68 L76.5,39 L79.572,39 L79.572,30.624 C79.572,28.248 78.3,27.12 76.164,27.12 C74.388,27.12 72.852,28.176 72.18,29.232 C71.748,27.912 70.668,27.12 68.964,27.12 C67.188,27.12 65.652,28.224 65.172,28.92 L65.172,27.408 L62.124,27.408 L62.124,39 L65.172,39 Z M85.62,39 L85.62,31.2 C86.076,30.552 86.964,29.832 88.02,29.832 C89.268,29.832 89.748,30.6 89.748,31.68 L89.748,39 L92.82,39 L92.82,31.176 C93.252,30.552 94.14,29.832 95.22,29.832 C96.468,29.832 96.948,30.6 96.948,31.68 L96.948,39 L100.02,39 L100.02,30.624 C100.02,28.248 98.748,27.12 96.612,27.12 C94.836,27.12 93.3,28.176 92.628,29.232 C92.196,27.912 91.116,27.12 89.412,27.12 C87.636,27.12 86.1,28.224 85.62,28.92 L85.62,27.408 L82.572,27.408 L82.572,39 L85.62,39 Z M108.468,39.288 C110.268,39.288 112.092,38.736 113.244,37.68 L111.9,35.712 C111.156,36.432 109.788,36.864 108.804,36.864 C106.836,36.864 105.66,35.64 105.468,34.176 L114.084,34.176 L114.084,33.504 C114.084,29.712 111.732,27.12 108.276,27.12 C104.748,27.12 102.276,29.832 102.276,33.192 C102.276,36.912 104.94,39.288 108.468,39.288 Z M111.132,32.112 L105.42,32.112 C105.564,30.96 106.38,29.544 108.276,29.544 C110.292,29.544 111.06,31.008 111.132,32.112 Z M119.34,39 L119.34,31.2 C119.844,30.504 120.78,29.832 121.98,29.832 C123.276,29.832 124.116,30.384 124.116,31.992 L124.116,39 L127.164,39 L127.164,30.816 C127.164,28.56 125.94,27.12 123.396,27.12 C121.5,27.12 120.084,28.032 119.34,28.92 L119.34,27.408 L116.292,27.408 L116.292,39 L119.34,39 Z M135.588,39.288 C137.964,39.288 139.404,38.256 140.172,37.176 L138.18,35.328 C137.628,36.096 136.788,36.576 135.732,36.576 C133.884,36.576 132.588,35.208 132.588,33.192 C132.588,31.176 133.884,29.832 135.732,29.832 C136.788,29.832 137.628,30.264 138.18,31.08 L140.172,29.208 C139.404,28.152 137.964,27.12 135.588,27.12 C132.012,27.12 129.444,29.64 129.444,33.192 C129.444,36.768 132.012,39.288 135.588,39.288 Z M147.612,39.288 C149.412,39.288 151.236,38.736 152.388,37.68 L151.044,35.712 C150.3,36.432 148.932,36.864 147.948,36.864 C145.98,36.864 144.804,35.64 144.612,34.176 L153.228,34.176 L153.228,33.504 C153.228,29.712 150.876,27.12 147.42,27.12 C143.892,27.12 141.42,29.832 141.42,33.192 C141.42,36.912 144.084,39.288 147.612,39.288 Z M150.276,32.112 L144.564,32.112 C144.708,30.96 145.524,29.544 147.42,29.544 C149.436,29.544 150.204,31.008 150.276,32.112 Z M158.484,39 L158.484,31.2 C158.94,30.552 159.828,29.832 160.884,29.832 C162.132,29.832 162.612,30.6 162.612,31.68 L162.612,39 L165.684,39 L165.684,31.176 C166.116,30.552 167.004,29.832 168.084,29.832 C169.332,29.832 169.812,30.6 169.812,31.68 L169.812,39 L172.884,39 L172.884,30.624 C172.884,28.248 171.612,27.12 169.476,27.12 C167.7,27.12 166.164,28.176 165.492,29.232 C165.06,27.912 163.98,27.12 162.276,27.12 C160.5,27.12 158.964,28.224 158.484,28.92 L158.484,27.408 L155.436,27.408 L155.436,39 L158.484,39 Z M181.332,39.288 C183.132,39.288 184.956,38.736 186.108,37.68 L184.764,35.712 C184.02,36.432 182.652,36.864 181.668,36.864 C179.7,36.864 178.524,35.64 178.332,34.176 L186.948,34.176 L186.948,33.504 C186.948,29.712 184.596,27.12 181.14,27.12 C177.612,27.12 175.14,29.832 175.14,33.192 C175.14,36.912 177.804,39.288 181.332,39.288 Z M183.996,32.112 L178.284,32.112 C178.428,30.96 179.244,29.544 181.14,29.544 C183.156,29.544 183.924,31.008 183.996,32.112 Z M192.204,39 L192.204,31.2 C192.708,30.504 193.644,29.832 194.844,29.832 C196.14,29.832 196.98,30.384 196.98,31.992 L196.98,39 L200.028,39 L200.028,30.816 C200.028,28.56 198.804,27.12 196.26,27.12 C194.364,27.12 192.948,28.032 192.204,28.92 L192.204,27.408 L189.156,27.408 L189.156,39 L192.204,39 Z M206.94,39.288 C208.212,39.288 209.028,38.952 209.484,38.544 L208.836,36.24 C208.668,36.408 208.236,36.576 207.78,36.576 C207.108,36.576 206.724,36.024 206.724,35.304 L206.724,30.072 L209.076,30.072 L209.076,27.408 L206.724,27.408 L206.724,24.24 L203.652,24.24 L203.652,27.408 L201.732,27.408 L201.732,30.072 L203.652,30.072 L203.652,36.12 C203.652,38.184 204.804,39.288 206.94,39.288 Z" id="Commencement" fill-opacity="0.4" fill="#1F1F1F" fill-rule="nonzero"></path>
                    </g>
                </g>
            </g>
        </g>
    </g>
</svg>