<?xml version="1.0" encoding="UTF-8"?>
<svg width="152px" height="59px" viewBox="0 0 152 59" version="1.1" xmlns="http://www.w3.org/2000/svg" xmlns:xlink="http://www.w3.org/1999/xlink">
    <!-- Generator: Sketch 63.1 (92452) - https://sketch.com -->
    <title>devboard</title>
    <desc>Created with Sketch.</desc>
    <g id="Page-1" stroke="none" stroke-width="1" fill="none" fill-rule="evenodd">
        <g id="Home" transform="translate(-737.000000, -752.000000)">
            <g id="homegrown" transform="translate(222.000000, 502.000000)">
                <g id="portfolio" transform="translate(0.000000, 157.000000)">
                    <g id="devboard" transform="translate(515.000000, 93.000000)">
                        <rect id="Rectangle-Copy-10" fill="#EFEFEF" x="0" y="0" width="152" height="59" rx="2"></rect>
                        <path d="M30.276,39 C35.292,39 38.772,35.832 38.772,31.008 C38.772,26.184 35.292,22.992 30.276,22.992 L23.964,22.992 L23.964,39 L30.276,39 Z M30.276,36 L27.372,36 L27.372,25.992 L30.276,25.992 C33.564,25.992 35.292,28.176 35.292,31.008 C35.292,33.72 33.444,36 30.276,36 Z M46.572,39.288 C48.372,39.288 50.196,38.736 51.348,37.68 L50.004,35.712 C49.26,36.432 47.892,36.864 46.908,36.864 C44.94,36.864 43.764,35.64 43.572,34.176 L52.188,34.176 L52.188,33.504 C52.188,29.712 49.836,27.12 46.38,27.12 C42.852,27.12 40.38,29.832 40.38,33.192 C40.38,36.912 43.044,39.288 46.572,39.288 Z M49.236,32.112 L43.524,32.112 C43.668,30.96 44.484,29.544 46.38,29.544 C48.396,29.544 49.164,31.008 49.236,32.112 Z M60.684,39 L65.34,27.408 L62.052,27.408 L59.028,35.472 L56.004,27.408 L52.74,27.408 L57.396,39 L60.684,39 Z M75.468,39 C78.516,39 80.124,37.08 80.124,34.68 C80.124,32.664 78.756,31.008 77.052,30.744 C78.564,30.432 79.812,29.088 79.812,27.072 C79.812,24.936 78.252,22.992 75.204,22.992 L66.78,22.992 L66.78,39 L75.468,39 Z M74.46,29.4 L70.188,29.4 L70.188,25.92 L74.46,25.92 C75.612,25.92 76.332,26.664 76.332,27.672 C76.332,28.68 75.612,29.4 74.46,29.4 Z M74.58,36.048 L70.188,36.048 L70.188,32.328 L74.58,32.328 C75.924,32.328 76.644,33.192 76.644,34.2 C76.644,35.352 75.876,36.048 74.58,36.048 Z M87.996,39.288 C91.836,39.288 94.14,36.504 94.14,33.192 C94.14,29.904 91.836,27.12 87.996,27.12 C84.18,27.12 81.876,29.904 81.876,33.192 C81.876,36.504 84.18,39.288 87.996,39.288 Z M87.996,36.576 C86.1,36.576 85.044,35.016 85.044,33.192 C85.044,31.392 86.1,29.832 87.996,29.832 C89.892,29.832 90.972,31.392 90.972,33.192 C90.972,35.016 89.892,36.576 87.996,36.576 Z M99.684,39.288 C101.196,39.288 102.564,38.736 103.356,37.8 L103.356,39 L106.404,39 L106.404,31.512 C106.404,28.176 103.98,27.12 101.34,27.12 C99.516,27.12 97.692,27.696 96.276,28.944 L97.428,30.984 C98.412,30.072 99.564,29.616 100.812,29.616 C102.348,29.616 103.356,30.384 103.356,31.56 L103.356,33.12 C102.588,32.208 101.22,31.704 99.684,31.704 C97.836,31.704 95.652,32.736 95.652,35.448 C95.652,38.04 97.836,39.288 99.684,39.288 Z M100.908,37.224 C99.708,37.224 98.724,36.6 98.724,35.52 C98.724,34.392 99.708,33.768 100.908,33.768 C101.892,33.768 102.852,34.104 103.356,34.776 L103.356,36.216 C102.852,36.888 101.892,37.224 100.908,37.224 Z M112.476,39 L112.476,31.344 C112.98,30.6 114.324,30.024 115.332,30.024 C115.668,30.024 115.956,30.048 116.172,30.096 L116.172,27.12 C114.732,27.12 113.292,27.96 112.476,28.992 L112.476,27.408 L109.428,27.408 L109.428,39 L112.476,39 Z M122.46,39.288 C123.852,39.288 125.124,38.664 126.036,37.512 L126.036,39 L129.108,39 L129.108,22.992 L126.036,22.992 L126.036,28.896 C125.124,27.72 123.828,27.12 122.46,27.12 C119.508,27.12 117.324,29.424 117.324,33.216 C117.324,37.08 119.532,39.288 122.46,39.288 Z M123.396,36.576 C121.668,36.576 120.468,35.208 120.468,33.216 C120.468,31.2 121.668,29.832 123.396,29.832 C124.428,29.832 125.532,30.384 126.036,31.152 L126.036,35.256 C125.532,36.024 124.428,36.576 123.396,36.576 Z" id="DevBoard" fill-opacity="0.4" fill="#1F1F1F" fill-rule="nonzero"></path>
                    </g>
                </g>
            </g>
        </g>
    </g>
</svg>