<?xml version="1.0" encoding="UTF-8"?>
<svg width="31px" height="24px" viewBox="0 0 31 24" version="1.1" xmlns="http://www.w3.org/2000/svg" xmlns:xlink="http://www.w3.org/1999/xlink">
    <!-- Generator: Sketch 63.1 (92452) - https://sketch.com -->
    <title>developer-squares</title>
    <desc>Created with Sketch.</desc>
    <g id="Symbols" stroke="none" stroke-width="1" fill="none" fill-rule="evenodd">
        <g id="logoandnav" transform="translate(-143.000000, -5.000000)">
            <g id="logo">
                <g>
                    <g id="developer-squares">
                        <g transform="translate(158.187067, 16.816406) rotate(-180.000000) translate(-158.187067, -16.816406) translate(142.687067, 5.316406)">
                            <path d="M26.2688172,7.5 L30.0215054,11.25 L26.2688172,15 L22.516129,11.25 L26.2688172,7.5 Z" id="Combined-Shape" fill-opacity="0.6" fill="#FFFFFF"></path>
                            <path d="M18.7634409,15 L22.516129,11.25 L26.2688172,15 L22.516129,18.75 L18.7634409,15 Z" id="Combined-Shape" fill-opacity="0.55" fill="#FFFFFF"></path>
                            <path d="M7.50537634,3.75 L11.2580645,7.5 L7.50537634,11.25 L3.75268817,7.5 L7.50537634,3.75 Z" id="Combined-Shape" fill-opacity="0.5" fill="#000000"></path>
                            <path d="M15.0107527,3.75 L18.7634409,7.5 L15.0107527,11.25 L11.2580645,7.5 L15.0107527,3.75 Z" id="Combined-Shape" fill-opacity="0.45" fill="#FFFFFF"></path>
                            <path d="M11.2580645,0 L15.0107527,3.75 L11.2580645,7.5 L7.50537634,3.75 L11.2580645,0 Z" id="Combined-Shape" fill-opacity="0.45" fill="#000000"></path>
                            <path d="M11.2580645,7.5 L15.0107527,11.25 L11.2580645,15 L7.50537634,11.25 L11.2580645,7.5 Z" id="Combined-Shape" fill-opacity="0.4" fill="#FFFFFF"></path>
                            <path d="M18.7634409,7.5 L22.516129,11.25 L18.7634409,15 L15.0107527,11.25 L18.7634409,7.5 Z" id="Combined-Shape" fill-opacity="0.35" fill="#000000"></path>
                            <path d="M3.75268817,7.5 L7.50537634,11.25 L3.75268817,15 L1.11821663e-12,11.25 L3.75268817,7.5 Z" id="Combined-Shape" fill-opacity="0.55" fill="#000000"></path>
                            <path d="M18.7634409,7.5 L22.516129,3.75 L26.2688172,7.5 L22.516129,11.25 L18.7634409,7.5 Z" id="Combined-Shape" fill-opacity="0.55" fill="#FFFFFF"></path>
                            <path d="M15.0107527,3.75 L18.7634409,-6.66133815e-16 L22.516129,3.75 L18.7634409,7.5 L15.0107527,3.75 Z" id="Combined-Shape" fill-opacity="0.5" fill="#FFFFFF"></path>
                            <path d="M11.2580645,15 L15.0107527,18.75 L11.2580645,22.5 L7.50537634,18.75 L11.2580645,15 Z" id="Combined-Shape" fill-opacity="0.45" fill="#000000"></path>
                            <path d="M7.50537634,11.25 L11.2580645,15 L7.50537634,18.75 L3.75268817,15 L7.50537634,11.25 Z" id="Combined-Shape" fill-opacity="0.5" fill="#000000"></path>
                            <path d="M15.0107527,11.25 L18.7634409,15 L15.0107527,18.75 L11.2580645,15 L15.0107527,11.25 Z" id="Combined-Shape" fill-opacity="0.4" fill="#000000"></path>
                            <path d="M15.0107527,18.75 L18.7634409,15 L22.516129,18.75 L18.7634409,22.5 L15.0107527,18.75 Z" id="Combined-Shape" fill-opacity="0.5" fill="#FFFFFF"></path>
                        </g>
                    </g>
                </g>
            </g>
        </g>
    </g>
</svg>