<?xml version="1.0" encoding="UTF-8"?>
<svg width="100px" height="19px" viewBox="0 0 100 19" version="1.1" xmlns="http://www.w3.org/2000/svg" xmlns:xlink="http://www.w3.org/1999/xlink">
    <!-- Generator: Sketch 63.1 (92452) - https://sketch.com -->
    <title>peaks</title>
    <desc>Created with Sketch.</desc>
    <g id="Page-1" stroke="none" stroke-width="1" fill="none" fill-rule="evenodd" fill-opacity="0.4">
        <g id="Home" transform="translate(-626.000000, -679.000000)" fill="#1F1F1F" fill-rule="nonzero">
            <g id="homegrown" transform="translate(222.000000, 502.000000)">
                <g id="portfolio" transform="translate(0.000000, 157.000000)">
                    <g id="peaks" transform="translate(374.000000, 0.000000)">
                        <g transform="translate(30.000000, 20.000000)">
                            <path d="M30.468,17 L30.468,11.312 L34.548,11.312 C38.004,11.312 39.924,8.936 39.924,6.152 C39.924,3.344 38.028,0.992 34.548,0.992 L27.06,0.992 L27.06,17 L30.468,17 Z M34.092,8.312 L30.468,8.312 L30.468,3.992 L34.092,3.992 C35.436,3.992 36.444,4.808 36.444,6.152 C36.444,7.472 35.436,8.312 34.092,8.312 Z M53.364,17 L53.364,14 L45.444,14 L45.444,10.376 L53.196,10.376 L53.196,7.376 L45.444,7.376 L45.444,3.992 L53.364,3.992 L53.364,0.992 L42.036,0.992 L42.036,17 L53.364,17 Z M58.212,17 L59.22,14.288 L66.084,14.288 L67.068,17 L70.956,17 L64.788,0.992 L60.516,0.992 L54.324,17 L58.212,17 Z M65.148,11.288 L60.156,11.288 L62.652,4.4 L65.148,11.288 Z M75.852,17 L75.852,12.08 L77.1,10.592 L81.948,17 L86.148,17 L79.356,8.504 L85.716,0.992 L81.516,0.992 L75.852,8.144 L75.852,0.992 L72.444,0.992 L72.444,17 L75.852,17 Z M93.396,17.288 C97.716,17.288 99.804,15.08 99.804,12.152 C99.804,6.176 90.612,7.88 90.612,5.336 C90.612,4.376 91.428,3.728 92.892,3.728 C94.524,3.728 96.252,4.28 97.548,5.48 L99.444,2.984 C97.86,1.52 95.748,0.752 93.204,0.752 C89.436,0.752 87.132,2.96 87.132,5.624 C87.132,11.648 96.348,9.704 96.348,12.536 C96.348,13.448 95.436,14.312 93.564,14.312 C91.356,14.312 89.604,13.328 88.476,12.152 L86.628,14.744 C88.116,16.256 90.324,17.288 93.396,17.288 Z" id="PEAKS"></path>
                            <path d="M18.8277079,6.47206136 C18.8277079,10.0464576 15.9300795,12.9440492 12.3556833,12.9440492 C11.9430917,12.9440492 11.5396934,12.9049964 11.1485404,12.8311932 L10.2655504,13.8245755 C10.0980709,14.0129913 9.85800969,14.12079 9.60591864,14.1207809 L8.23712223,14.1207809 L8.23712223,15.5916956 C8.23712223,16.07912 7.84199776,16.4742445 7.35457341,16.4742445 L5.88365872,16.4742445 L5.88365872,17.9451591 C5.88365872,18.4325835 5.48853426,18.8277079 5.00110992,18.8277079 L0.882548808,18.8277079 C0.395124456,18.8277079 -4.08562073e-14,18.4325835 -4.08562073e-14,17.9451591 L-4.08562073e-14,15.0747059 C-4.08562073e-14,14.8406466 0.0929985804,14.6161482 0.258476483,14.4506336 L6.20839991,8.5007101 C5.99794879,7.86255376 5.88365872,7.18067453 5.88365872,6.4720246 C5.88365872,2.89762838 8.7812503,-4.08562073e-14 12.3556465,-4.08562073e-14 C15.9405966,-4.08562073e-14 18.8277079,2.88707456 18.8277079,6.47206136 Z M12.3556833,4.70692697 C12.3556833,5.68177568 13.1459322,6.4720246 14.1207809,6.4720246 C15.0956297,6.4720246 15.8858785,5.68177568 15.8858785,4.70692697 C15.8858785,3.73207827 15.0956297,2.94182936 14.1207809,2.94182936 C13.1459322,2.94182936 12.3556833,3.73207827 12.3556833,4.70692697 Z" id="Shape"></path>
                        </g>
                    </g>
                </g>
            </g>
        </g>
    </g>
</svg>