<?xml version="1.0" encoding="UTF-8"?>
<svg width="161px" height="59px" viewBox="0 0 161 59" version="1.1" xmlns="http://www.w3.org/2000/svg" xmlns:xlink="http://www.w3.org/1999/xlink">
    <!-- Generator: Sketch 63.1 (92452) - https://sketch.com -->
    <title>peaks</title>
    <desc>Created with Sketch.</desc>
    <g id="Page-1" stroke="none" stroke-width="1" fill="none" fill-rule="evenodd">
        <g id="Home" transform="translate(-596.000000, -659.000000)">
            <g id="homegrown" transform="translate(222.000000, 502.000000)">
                <g id="portfolio" transform="translate(0.000000, 157.000000)">
                    <g id="peaks" transform="translate(374.000000, 0.000000)">
                        <rect id="Rectangle-Copy-4" fill="#EFEFEF" x="0" y="0" width="161" height="59" rx="2"></rect>
                        <path d="M60.468,37 L60.468,31.312 L64.548,31.312 C68.004,31.312 69.924,28.936 69.924,26.152 C69.924,23.344 68.028,20.992 64.548,20.992 L57.06,20.992 L57.06,37 L60.468,37 Z M64.092,28.312 L60.468,28.312 L60.468,23.992 L64.092,23.992 C65.436,23.992 66.444,24.808 66.444,26.152 C66.444,27.472 65.436,28.312 64.092,28.312 Z M83.364,37 L83.364,34 L75.444,34 L75.444,30.376 L83.196,30.376 L83.196,27.376 L75.444,27.376 L75.444,23.992 L83.364,23.992 L83.364,20.992 L72.036,20.992 L72.036,37 L83.364,37 Z M88.212,37 L89.22,34.288 L96.084,34.288 L97.068,37 L100.956,37 L94.788,20.992 L90.516,20.992 L84.324,37 L88.212,37 Z M95.148,31.288 L90.156,31.288 L92.652,24.4 L95.148,31.288 Z M105.852,37 L105.852,32.08 L107.1,30.592 L111.948,37 L116.148,37 L109.356,28.504 L115.716,20.992 L111.516,20.992 L105.852,28.144 L105.852,20.992 L102.444,20.992 L102.444,37 L105.852,37 Z M123.396,37.288 C127.716,37.288 129.804,35.08 129.804,32.152 C129.804,26.176 120.612,27.88 120.612,25.336 C120.612,24.376 121.428,23.728 122.892,23.728 C124.524,23.728 126.252,24.28 127.548,25.48 L129.444,22.984 C127.86,21.52 125.748,20.752 123.204,20.752 C119.436,20.752 117.132,22.96 117.132,25.624 C117.132,31.648 126.348,29.704 126.348,32.536 C126.348,33.448 125.436,34.312 123.564,34.312 C121.356,34.312 119.604,33.328 118.476,32.152 L116.628,34.744 C118.116,36.256 120.324,37.288 123.396,37.288 Z" id="PEAKS" fill-opacity="0.4" fill="#1F1F1F" fill-rule="nonzero"></path>
                        <path d="M48.8277079,26.4720614 C48.8277079,30.0464576 45.9300795,32.9440492 42.3556833,32.9440492 C41.9430917,32.9440492 41.5396934,32.9049964 41.1485404,32.8311932 L40.2655504,33.8245755 C40.0980709,34.0129913 39.8580097,34.12079 39.6059186,34.1207809 L38.2371222,34.1207809 L38.2371222,35.5916956 C38.2371222,36.07912 37.8419978,36.4742445 37.3545734,36.4742445 L35.8836587,36.4742445 L35.8836587,37.9451591 C35.8836587,38.4325835 35.4885343,38.8277079 35.0011099,38.8277079 L30.8825488,38.8277079 C30.3951245,38.8277079 30,38.4325835 30,37.9451591 L30,35.0747059 C30,34.8406466 30.0929986,34.6161482 30.2584765,34.4506336 L36.2083999,28.5007101 C35.9979488,27.8625538 35.8836587,27.1806745 35.8836587,26.4720246 C35.8836587,22.8976284 38.7812503,20 42.3556465,20 C45.9405966,20 48.8277079,22.8870746 48.8277079,26.4720614 Z M42.3556833,24.706927 C42.3556833,25.6817757 43.1459322,26.4720246 44.1207809,26.4720246 C45.0956297,26.4720246 45.8858785,25.6817757 45.8858785,24.706927 C45.8858785,23.7320783 45.0956297,22.9418294 44.1207809,22.9418294 C43.1459322,22.9418294 42.3556833,23.7320783 42.3556833,24.706927 Z" id="Shape" fill-opacity="0.4" fill="#1F1F1F" fill-rule="nonzero"></path>
                    </g>
                </g>
            </g>
        </g>
    </g>
</svg>