<?xml version="1.0" encoding="UTF-8"?>
<svg width="1389px" height="351px" viewBox="0 0 1389 351" version="1.1" xmlns="http://www.w3.org/2000/svg" xmlns:xlink="http://www.w3.org/1999/xlink">
    <!-- Generator: Sketch 63.1 (92452) - https://sketch.com -->
    <title>homepage-sdl</title>
    <desc>Created with Sketch.</desc>
    <defs>
        <linearGradient x1="55.2932618%" y1="46.7809039%" x2="45.4584488%" y2="53.1317903%" id="linearGradient-1">
            <stop stop-color="#0078FF" stop-opacity="0" offset="0%"></stop>
            <stop stop-color="#0078FF" stop-opacity="0.03" offset="54.1358742%"></stop>
            <stop stop-color="#0078FF" stop-opacity="0.08" offset="100%"></stop>
        </linearGradient>
        <linearGradient x1="64.0795547%" y1="47.901847%" x2="72.1080427%" y2="56.6774931%" id="linearGradient-2">
            <stop stop-color="#0078FF" stop-opacity="0" offset="0%"></stop>
            <stop stop-color="#0078FF" stop-opacity="0.03" offset="57.347973%"></stop>
            <stop stop-color="#0078FF" stop-opacity="0.08" offset="100%"></stop>
        </linearGradient>
    </defs>
    <g id="Page-1" stroke="none" stroke-width="1" fill="none" fill-rule="evenodd">
        <g id="Home" transform="translate(-11.000000, -1089.000000)">
            <g id="Group-10" transform="translate(-3.000000, 1008.000000)">
                <g id="homepage-sdl" transform="translate(0.904658, 64.859936)">
                    <path d="M23.5049217,23.046341 C211.497767,1.43504259 419.831101,30.5437114 648.504922,110.372347 C877.178743,190.200983 1131.84541,190.200983 1412.50492,110.372347 L1412.50492,355.808293 C1140.83826,385.43437 907.504922,352.747408 712.504922,257.747408 C572.814227,189.692967 323.510118,116.11246 212.504922,110.372347 C138.501458,106.545605 72.0315977,117.967788 13.0953415,144.638896 L23.5049217,23.046341 Z" id="Path-2-Copy" fill="url(#linearGradient-1)" transform="translate(712.800132, 191.256205) rotate(-180.000000) translate(-712.800132, -191.256205) "></path>
                    <path d="M1.14471717,3.5804488 C169.557764,-8.74517043 700.559795,15.2601363 700.054297,15.906068 C852.194294,69.0172126 1045.23709,150.2447 1201.64964,142.580449 C1305.92467,137.470948 1372.22622,106.42426 1400.5543,49.4403852 C1415.28875,224.1293 1419.32053,312.175988 1412.64964,313.580449 C1248.54626,348.130086 993.054297,339.315446 700.554297,196.815446 C505.554297,101.815446 272.417771,64.1126086 1.14471717,83.7069343 C0.94226916,30.5679231 0.94226916,3.85909463 1.14471717,3.5804488 Z" id="Path-2-Copy" fill="url(#linearGradient-2)"></path>
                </g>
            </g>
        </g>
    </g>
</svg>