<?xml version="1.0" encoding="UTF-8"?>
<svg width="1400px" height="547px" viewBox="0 0 1400 547" version="1.1" xmlns="http://www.w3.org/2000/svg" xmlns:xlink="http://www.w3.org/1999/xlink">
    <!-- Generator: Sketch 63.1 (92452) - https://sketch.com -->
    <title>swirl</title>
    <desc>Created with Sketch.</desc>
    <defs>
        <linearGradient x1="58.3406765%" y1="5.85862676%" x2="58.3406768%" y2="90.5810057%" id="linearGradient-1">
            <stop stop-color="#0078FF" stop-opacity="0" offset="0%"></stop>
            <stop stop-color="#0078FF" stop-opacity="0.06" offset="68.1297508%"></stop>
            <stop stop-color="#0078FF" stop-opacity="0.16" offset="100%"></stop>
        </linearGradient>
        <linearGradient x1="55.2932618%" y1="44.3802335%" x2="42.5590649%" y2="53.6470987%" id="linearGradient-2">
            <stop stop-color="#0078FF" stop-opacity="0.03" offset="0%"></stop>
            <stop stop-color="#0078FF" stop-opacity="0.06" offset="68.1297508%"></stop>
            <stop stop-color="#0078FF" stop-opacity="0.16" offset="100%"></stop>
        </linearGradient>
    </defs>
    <g id="Page-1" stroke="none" stroke-width="1" fill="none" fill-rule="evenodd">
        <g id="Home" transform="translate(0.000000, -1067.000000)">
            <g id="Group-10" transform="translate(0.000000, 1006.000000)">
                <g id="swirl" transform="translate(0.000000, 29.000000)">
                    <path d="M1.5904198,21.2602538 C286.549291,-26.9779114 578.243868,6.87092256 876.674149,122.806756 C1175.10443,238.742589 1496.57061,217.800119 1841.07268,59.979346 L1841.07268,442.993002 C1547.97846,554.645537 1292.84259,549.645873 1075.66506,427.994011 C878.945695,317.801775 555.687046,165.364218 329,114.705942 C180.29443,81.4743658 119.720481,85.8678049 0.590419797,76.4644618 C-0.449212091,76.7747769 -0.115878758,58.3733743 1.5904198,21.2602538 Z" id="Path-2" fill="url(#linearGradient-1)"></path>
                    <path d="M1.37014371,119.727826 C196.226269,101.620293 407.991242,132.480844 636.665063,212.30948 C865.338884,292.138116 1120.47476,271.598489 1402.07268,150.690597 L1402.07268,533.704253 C1121.91666,610.351695 873.249892,587.849485 656.072365,466.197623 C330.306075,283.71983 302.102292,272.647672 1.37014371,248.909855 C0.330511825,249.22017 0.330511825,206.159494 1.37014371,119.727826 Z" id="Path-2-Copy" fill="url(#linearGradient-2)" transform="translate(701.331550, 346.424655) rotate(-180.000000) translate(-701.331550, -346.424655) "></path>
                </g>
            </g>
        </g>
    </g>
</svg>