<?xml version="1.0" encoding="UTF-8"?>
<svg width="122px" height="20px" viewBox="0 0 122 20" version="1.1" xmlns="http://www.w3.org/2000/svg" xmlns:xlink="http://www.w3.org/1999/xlink">
    <!-- Generator: Sketch 63.1 (92452) - https://sketch.com -->
    <title>Group 4</title>
    <desc>Created with Sketch.</desc>
    <defs>
        <polygon id="path-1" points="0.0500402507 0.0654269707 23.6216438 0.0654269707 23.6216438 16.1249867 0.0500402507 16.1249867"></polygon>
    </defs>
    <g id="Page-1" stroke="none" stroke-width="1" fill="none" fill-rule="evenodd">
        <g id="Home" transform="translate(-545.000000, -771.000000)">
            <g id="homegrown" transform="translate(222.000000, 502.000000)">
                <g id="portfolio" transform="translate(0.000000, 157.000000)">
                    <g id="tacos" transform="translate(303.000000, 93.000000)">
                        <g id="Group-4" transform="translate(20.000000, 16.000000)">
                            <text id="TACOS" font-family="ProximaNova-Bold, Proxima Nova" font-size="24" font-weight="bold" fill="#1F1F1F" fill-opacity="0.4">
                                <tspan x="43.184" y="22">TACOS</tspan>
                            </text>
                            <g id="Group-124" transform="translate(0.000000, 3.000000)">
                                <g id="Group-3" transform="translate(8.625000, 3.375000)">
                                    <mask id="mask-2" fill="white">
                                        <use xlink:href="#path-1"></use>
                                    </mask>
                                    <g id="Clip-2"></g>
                                    <path d="M11.5939786,0.0678709877 C5.16139784,0.197667284 0.0500402507,5.56928302 0.0500402507,12.0492105 L17.7287133,16.1249867 L19.4619591,16.1249867 C21.7593094,16.1249867 23.6216701,14.2492444 23.6216701,11.9354728 C23.6216701,5.29880772 18.2137168,-0.0657740741 11.5939786,0.0678709877" id="Fill-1" fill="#9B9B9B" mask="url(#mask-2)"></path>
                                </g>
                                <path d="M22.1174616,8.18467931 C19.8452002,9.0121971 4.46580105,8.35467582 3.63770787,9.57197695 C2.80954897,10.7891467 3.92418868,10.5926129 3.92418868,11.6847813 C3.92418868,12.7769498 2.99199235,12.8150479 3.22484427,13.5632822 C3.41011369,14.1588611 3.94705982,14.15827 4.29623912,14.9748181 C4.64535269,15.7913006 3.86950824,16.7852021 4.79841848,17.7135486 C5.72719728,18.6418951 11.1979357,18.321608 17.1980623,18.321608 C23.198189,18.321608 25.1256087,17.9373423 25.3551745,17.8501764 C25.4708447,17.8085969 25.5901295,17.776739 25.7175639,17.7740458 C25.8433552,17.7675429 25.9717096,17.776936 26.1032187,17.8151655 C26.3665655,17.8866981 26.6536378,17.8879461 26.9331521,17.81464 C27.0747823,17.7808115 27.2078687,17.7201172 27.3421381,17.6519347 C27.4720699,17.5784973 27.597204,17.4896892 27.711954,17.3863644 C27.937708,17.1753139 28.1114104,16.9223554 28.205721,16.6494282 C28.2297751,16.5815742 28.2501489,16.5133916 28.2665793,16.4454062 C28.2810381,16.3759099 28.2907649,16.3057568 28.2969427,16.236589 C28.3030548,16.1672898 28.3051579,16.0984504 28.303252,16.030662 C28.299703,15.9616255 28.290962,15.8926548 28.2788692,15.8255889 C28.2548151,15.6927709 28.2571811,15.5646824 28.2726914,15.4388271 C28.2815638,15.3765564 28.2960226,15.3161906 28.3158048,15.2579267 C28.3349298,15.1994657 28.3551721,15.1410048 28.3829067,15.086288 C28.4097868,15.0310457 28.4433049,14.9791534 28.4793204,14.9289033 C28.5134956,14.8778649 28.5528629,14.8298481 28.5970936,14.7849843 C28.6877238,14.6962419 28.7892638,14.6169584 28.908943,14.5553445 C28.9699327,14.5240778 29.0294766,14.4889355 29.0873774,14.4501148 C29.1428465,14.4105059 29.1957524,14.3669558 29.2472125,14.3199243 C29.2986068,14.2728271 29.3480295,14.2223799 29.395152,14.1687141 C29.4400399,14.1144571 29.4809845,14.0565217 29.5204832,13.9960245 C29.5590619,13.9353959 29.5973119,13.8724026 29.6289897,13.8062563 C29.6592874,13.7397816 29.6868905,13.6708766 29.711339,13.6001323 C29.7639163,13.4589721 29.7883648,13.307959 29.8052553,13.1541213 C29.8208313,13.0000866 29.8090014,12.8461833 29.791388,12.6984545 C29.7647707,12.5505286 29.7256006,12.4079891 29.6708544,12.2752368 C29.6106534,12.1427472 29.5411856,12.0193881 29.4569304,11.9092319 C29.3685347,11.7994699 29.2702808,11.7020569 29.1634173,11.619489 C29.0549766,11.5385633 28.9625062,11.444369 28.8941556,11.3403216 C28.8250821,11.23634 28.7654726,11.125724 28.7345177,11.0070286 C28.7011968,10.8889901 28.6788514,10.7677986 28.6857522,10.6410238 C28.6911413,10.514446 28.7132238,10.392532 28.7658669,10.2707493 C28.8181814,10.1481784 28.8574829,10.0210752 28.8833773,9.89088463 C28.9099288,9.7606941 28.9167639,9.62997808 28.9139378,9.4971601 C28.9099288,9.3648676 28.8943528,9.23106432 28.8628721,9.10008556 C28.829354,8.96982935 28.7829545,8.84082118 28.7239365,8.71568851 C28.6943617,8.65315501 28.662421,8.59239506 28.6273256,8.53386844 C28.5906529,8.47613005 28.5515485,8.42042795 28.5102096,8.36709056 C28.4272688,8.26028441 28.3351927,8.16280573 28.2354929,8.07596825 C28.2128189,8.05698487 28.1898164,8.0384613 28.1662223,8.0205289 C27.8662685,7.7918744 27.4959926,7.6271328 27.1215104,7.58049543 C26.1619082,7.46101179 24.389723,7.35709584 22.1174616,8.18467931" id="Fill-4" fill="#727272"></path>
                                <g id="Group-23" transform="translate(20.250000, 15.187500)">
                                    <path d="M1.596051,0.04234275 C1.596051,0.04234275 1.9851885,2.08563525 0.0224235,1.57763025" id="Fill-20" fill="#915729"></path>
                                    <path d="M1.596051,0.04234275 C1.596051,0.04234275 1.9851885,2.08563525 0.0224235,1.57763025" id="Stroke-22" stroke="#744200" stroke-width="0.9375" stroke-linecap="round"></path>
                                </g>
                                <g id="Group-27" transform="translate(20.437500, 10.875000)">
                                    <path d="M2.23554214,1.46834375 C2.23554214,1.46834375 1.77017786,-0.39184375 0.0558064286,0.11221875" id="Fill-24" fill="#915729"></path>
                                    <path d="M2.23554214,1.46834375 C2.23554214,1.46834375 1.77017786,-0.39184375 0.0558064286,0.11221875" id="Stroke-26" stroke="#744200" stroke-width="0.9375" stroke-linecap="round"></path>
                                </g>
                                <g id="Group-31" transform="translate(5.250000, 9.750000)">
                                    <path d="M0.371686364,0.0464288793 C0.371686364,0.0464288793 1.36932273,1.14595474 0.0391636364,1.87183836" id="Fill-28" fill="#915729"></path>
                                    <path d="M0.371686364,0.0464288793 C0.371686364,0.0464288793 1.36932273,1.14595474 0.0391636364,1.87183836" id="Stroke-30" stroke="#744200" stroke-width="0.9375" stroke-linecap="round"></path>
                                </g>
                                <g id="Group-35" transform="translate(5.062500, 12.562500)">
                                    <path d="M0.03087,0.04906575 C0.03087,0.04906575 1.54392,0.07896825 1.22386687,1.66515075" id="Fill-32" fill="#915729"></path>
                                    <path d="M0.03087,0.04906575 C0.03087,0.04906575 1.54392,0.07896825 1.22386687,1.66515075" id="Stroke-34" stroke="#744200" stroke-width="0.9375" stroke-linecap="round"></path>
                                </g>
                                <g id="Group-39" transform="translate(5.437500, 15.375000)">
                                    <path d="M0.0146625,0.08076875 C0.0146625,0.08076875 1.788225,-0.27954375 1.1231,1.30008125" id="Fill-36" fill="#915729"></path>
                                    <path d="M0.0146625,0.08076875 C0.0146625,0.08076875 1.788225,-0.27954375 1.1231,1.30008125" id="Stroke-38" stroke="#744200" stroke-width="0.9375" stroke-linecap="round"></path>
                                </g>
                                <g id="Group-43" transform="translate(9.000000, 11.250000)">
                                    <path d="M-0.000158653846,0.0139927734 C-0.000158653846,0.0139927734 1.66253365,0.871348242 0.543447115,2.0430416" id="Fill-40" fill="#915729"></path>
                                    <path d="M-0.000158653846,0.0139927734 C-0.000158653846,0.0139927734 1.66253365,0.871348242 0.543447115,2.0430416" id="Stroke-42" stroke="#744200" stroke-width="0.9375" stroke-linecap="round"></path>
                                </g>
                                <g id="Group-47" transform="translate(9.000000, 14.625000)">
                                    <path d="M0.0361565217,0.167461184 C0.0361565217,0.167461184 1.80002609,-0.488926974 1.42417826,1.26353684" id="Fill-44" fill="#915729"></path>
                                    <path d="M0.0361565217,0.167461184 C0.0361565217,0.167461184 1.80002609,-0.488926974 1.42417826,1.26353684" id="Stroke-46" stroke="#744200" stroke-width="0.9375" stroke-linecap="round"></path>
                                </g>
                                <g id="Group-51" transform="translate(10.500000, 16.500000)">
                                    <path d="M0.0246857143,1.12431176 C0.0246857143,1.12431176 0.566228571,-0.372136765 2.19098571,0.156017647" id="Fill-48" fill="#915729"></path>
                                    <path d="M0.0246857143,1.12431176 C0.0246857143,1.12431176 0.566228571,-0.372136765 2.19098571,0.156017647" id="Stroke-50" stroke="#744200" stroke-width="0.9375" stroke-linecap="round"></path>
                                </g>
                                <g id="Group-55" transform="translate(12.562500, 11.625000)">
                                    <path d="M0.710004808,0.0273278571 C0.710004808,0.0273278571 -0.856774038,1.167435 0.869884615,2.19356357" id="Fill-52" fill="#915729"></path>
                                    <path d="M0.710004808,0.0273278571 C0.710004808,0.0273278571 -0.856774038,1.167435 0.869884615,2.19356357" id="Stroke-54" stroke="#744200" stroke-width="0.9375" stroke-linecap="round"></path>
                                </g>
                                <g id="Group-59" transform="translate(15.187500, 11.437500)">
                                    <path d="M0.0159825,0.0141036458 C0.0159825,0.0141036458 1.4791575,1.33502552 0.2487825,2.41578594" id="Fill-56" fill="#915729"></path>
                                    <path d="M0.0159825,0.0141036458 C0.0159825,0.0141036458 1.4791575,1.33502552 0.2487825,2.41578594" id="Stroke-58" stroke="#744200" stroke-width="0.9375" stroke-linecap="round"></path>
                                </g>
                                <g id="Group-63" transform="translate(15.187500, 15.562500)">
                                    <path d="M2.23718824,0.875552885 C2.23718824,0.875552885 1.23957794,-0.979038462 0.0365558824,0.779639423" id="Fill-60" fill="#915729"></path>
                                    <path d="M2.23718824,0.875552885 C2.23718824,0.875552885 1.23957794,-0.979038462 0.0365558824,0.779639423" id="Stroke-62" stroke="#744200" stroke-width="0.9375" stroke-linecap="round"></path>
                                </g>
                                <g id="Group-67" transform="translate(18.562500, 12.000000)">
                                    <path d="M0.0205161058,1.43665435 C0.0205161058,1.43665435 0.0734127404,-0.500758696 1.64415072,0.164263043" id="Fill-64" fill="#915729"></path>
                                    <path d="M0.0205161058,1.43665435 C0.0205161058,1.43665435 0.0734127404,-0.500758696 1.64415072,0.164263043" id="Stroke-66" stroke="#744200" stroke-width="0.9375" stroke-linecap="round"></path>
                                </g>
                                <g id="Group-71" transform="translate(10.312500, 9.750000)">
                                    <path d="M0.73801875,0.0393875 C0.73801875,0.0393875 -0.78610625,0.2192 0.68258125,1.088075" id="Fill-68" fill="#915729"></path>
                                    <path d="M0.73801875,0.0393875 C0.73801875,0.0393875 -0.78610625,0.2192 0.68258125,1.088075" id="Stroke-70" stroke="#744200" stroke-width="0.9375" stroke-linecap="round"></path>
                                </g>
                                <g id="Group-75" transform="translate(12.000000, 14.812500)">
                                    <path d="M0.115447826,0.0574080882 C0.115447826,0.0574080882 -0.54963913,1.48404044 1.47451304,0.946753676" id="Fill-72" fill="#915729"></path>
                                    <path d="M0.115447826,0.0574080882 C0.115447826,0.0574080882 -0.54963913,1.48404044 1.47451304,0.946753676" id="Stroke-74" stroke="#744200" stroke-width="0.9375" stroke-linecap="round"></path>
                                </g>
                                <g id="Group-79" transform="translate(18.562500, 14.062500)">
                                    <path d="M0.02133675,1.40532543 C0.02133675,1.40532543 1.38618675,3.09689871 1.66739175,0.0547435345" id="Fill-76" fill="#915729"></path>
                                    <path d="M0.02133675,1.40532543 C0.02133675,1.40532543 1.38618675,3.09689871 1.66739175,0.0547435345" id="Stroke-78" stroke="#744200" stroke-width="0.9375" stroke-linecap="round"></path>
                                </g>
                                <g id="Group-83" transform="translate(23.062500, 16.875000)">
                                    <path d="M0.0373375,0.15321875 C0.0373375,0.15321875 0.9240875,1.15084375 1.64465,0.01465625" id="Fill-80"></path>
                                </g>
                                <g id="Group-95" transform="translate(15.750000, 9.562500)">
                                    <path d="M0.0281651786,1.26208687 C0.0281651786,1.26208687 0.473477679,-0.745644375 2.78937054,0.43278375" id="Fill-92" fill="#915729"></path>
                                    <path d="M0.0281651786,1.26208687 C0.0281651786,1.26208687 0.473477679,-0.745644375 2.78937054,0.43278375" id="Stroke-94" stroke="#744200" stroke-width="0.9375" stroke-linecap="round"></path>
                                </g>
                                <path d="M25.8168552,6.57412978 C25.7830384,6.44515937 25.7360522,6.31816603 25.6766246,6.19539042 C25.6144837,6.07446007 25.5384455,5.95893369 25.4515541,5.84920669 C25.4080754,5.79444205 25.3622804,5.74204988 25.3145662,5.6923597 C25.2655947,5.64352624 25.2137114,5.5981197 25.160703,5.55508563 C25.0543554,5.46914929 24.9410591,5.39441631 24.8227995,5.33213883 C24.5809199,5.2119993 24.3195841,5.14161586 24.0510349,5.13100562 C23.5172453,5.11235533 23.1037669,4.70165344 23.0635308,4.17779766 C23.0545306,4.0440823 23.0312361,3.91181679 22.9944413,3.78264868 C22.955992,3.65545762 22.9023219,3.53340694 22.8371368,3.41550808 C22.7091491,3.17694248 22.5188219,2.9734368 22.2944133,2.80182774 C21.8348751,2.47047198 21.2704453,2.34492848 20.7428764,2.47653498 C20.2282784,2.59265447 19.7105039,2.3295733 19.5246106,1.82957407 C19.4296456,1.57888249 19.2780324,1.3531019 19.0828081,1.16330385 C18.8844073,0.981084547 18.6461013,0.825951006 18.3739123,0.738103508 C18.1050984,0.641227423 17.8209974,0.615789213 17.551257,0.639118556 C17.2799283,0.66719285 17.0192542,0.755962977 16.7899484,0.893698364 C16.3337853,1.17569345 15.7644583,1.06965697 15.4243048,0.667390556 C15.3386708,0.563528848 15.2418528,0.467641294 15.1353066,0.384604649 C15.028562,0.304929012 14.9121553,0.235731808 14.7884692,0.177935667 C14.7266592,0.149070548 14.66293,0.123039219 14.5978111,0.0999734841 C14.5325599,0.0780939872 14.4657204,0.061947973 14.3976235,0.0473836091 C14.2615621,0.0189139024 14.1205374,0.00289969235 13.9774611,0 C13.8343849,0.00296559445 13.6933601,0.0189798045 13.5572987,0.0473836091 C13.489268,0.0618820709 13.4223623,0.0781598893 13.3571111,0.0999734841 C13.291926,0.123039219 13.228263,0.149070548 13.166453,0.177935667 C13.0427669,0.235731808 12.9264264,0.304797208 12.8195494,0.384604649 C12.7130033,0.467641294 12.6161852,0.563528848 12.5305513,0.667390556 C12.1904639,1.06959107 11.6211369,1.17562754 11.1648415,0.893632462 C10.9354695,0.755897075 10.6749278,0.667126948 10.4035991,0.639052653 C10.1338587,0.61572331 9.84975767,0.641161521 9.58094374,0.738037606 C9.30882093,0.825885104 9.07044875,0.981084547 8.87204792,1.16330385 C8.6768898,1.3531019 8.52521045,1.57894839 8.43024541,1.82963997 C8.24441835,2.32950739 7.72670998,2.59258857 7.21191343,2.47660088 C6.68454312,2.34492848 6.12011328,2.47047198 5.66050896,2.80189364 C5.43610028,2.9735027 5.24570696,3.17707429 5.11771923,3.41557398 C5.05253417,3.53347284 4.99886403,3.65565533 4.96034859,3.78278048 C4.92361995,3.91188269 4.90025922,4.0441482 4.89125904,4.17792946 C4.85115534,4.70171935 4.4376769,5.11235533 3.90375499,5.13113742 C3.63520577,5.14181356 3.3739361,5.2121311 3.1320565,5.33227063 C3.01386308,5.39461402 2.90063298,5.469347 2.79415302,5.55521743 C2.74114466,5.5982515 2.68919514,5.64365805 2.6402898,5.6924915 C2.59257566,5.74218169 2.54684685,5.79450795 2.50330191,5.8493385 C2.41647673,5.95906549 2.34037234,6.07459187 2.27829763,6.19552222 C2.21887003,6.31836374 2.17181767,6.44529118 2.13806702,6.57426159 C2.06752157,6.83042304 2.06434504,7.10418036 2.11106651,7.36574579 C2.12291232,7.43046166 2.12814037,7.4946503 2.12701534,7.55771861 C2.12734623,7.62164364 2.12158877,7.68451425 2.11000767,7.74560549 C2.08691164,7.86765618 2.04078576,7.98252354 1.97487275,8.08513311 C1.84589236,8.29186799 1.64438117,8.45451437 1.38503066,8.52390928 C1.12879049,8.59771963 0.889293296,8.72438347 0.683745273,8.89625614 C0.583353659,8.98331281 0.490572484,9.08117743 0.407188547,9.18833424 C0.365496578,9.24191265 0.326054653,9.29779763 0.289259836,9.35565967 C0.253854751,9.41431254 0.221692375,9.47533788 0.191912398,9.53807668 C0.132484798,9.66362018 0.0856971442,9.7929201 0.0520788584,9.92366986 C0.0203135489,10.0551446 0.00469560507,10.189453 0.000592585932,10.322114 C-0.00225305637,10.4553021 0.00469560507,10.5862496 0.0313652295,10.7171311 C0.0575716098,10.8476832 0.096947358,10.9753356 0.149691007,11.0983089 C0.20263319,11.2203596 8.4608857,15.9375 13.8875918,15.9375 C19.3142316,15.9375 25.8436572,7.36574579 25.8436572,7.36574579 C25.890511,7.10398266 25.8874006,6.83022534 25.8168552,6.57412978" id="Fill-96" fill="#B4B4B4"></path>
                                <g id="Group-104" transform="translate(0.375000, 3.375000)" fill="#9B9B9B">
                                    <path d="M0.0222986374,12.0491906 C0.0222986374,5.56939583 5.12994259,0.197713735 11.5575528,0.0678510802 C18.1723768,-0.0656612654 23.5761961,5.29878781 23.5761961,11.9355193 C23.5761961,14.2492245 25.4371559,16.1250332 27.7327779,16.1250332 L4.06623643,16.1250332 C1.83282174,16.1250332 0.0222986374,14.3001211 0.0222986374,12.0491906" id="Fill-102"></path>
                                </g>
                                <g id="Group-107" transform="translate(0.375000, 15.937500)" fill="#9B9B9B">
                                    <path d="M23.6151053,0.0258896591 L0.047793128,0.0258896591 C0.271371327,2.01506011 1.98476943,3.56254534 4.06621671,3.56254534 L27.7328239,3.56254534 C25.6279009,3.56248057 23.8895805,2.02276807 23.6151053,0.0258896591" id="Fill-105"></path>
                                </g>
                                <path d="M8.53125,9.1875 C8.79013639,9.1875 9,9.39736361 9,9.65631067 C9,9.91513639 8.79013639,10.125 8.53125,10.125 C8.27236361,10.125 8.0625,9.91513639 8.0625,9.65631067 C8.0625,9.39736361 8.27236361,9.1875 8.53125,9.1875" id="Fill-108" fill="#B4B4B4"></path>
                                <path d="M2.71875,12.9375 C2.97763639,12.9375 3.1875,13.1473636 3.1875,13.40625 C3.1875,13.6651364 2.97763639,13.875 2.71875,13.875 C2.45986361,13.875 2.25,13.6651364 2.25,13.40625 C2.25,13.1473636 2.45986361,12.9375 2.71875,12.9375" id="Fill-110" fill="#B4B4B4"></path>
                                <path d="M9.09375,12.375 C9.35263639,12.375 9.5625,12.5848636 9.5625,12.84375 C9.5625,13.1026364 9.35263639,13.3125 9.09375,13.3125 C8.83486361,13.3125 8.625,13.1026364 8.625,12.84375 C8.625,12.5848636 8.83486361,12.375 9.09375,12.375" id="Fill-112" fill="#B4B4B4"></path>
                                <path d="M4.96875,8.25 C5.22763639,8.25 5.4375,8.45986361 5.4375,8.71875 C5.4375,8.97763639 5.22763639,9.1875 4.96875,9.1875 C4.70986361,9.1875 4.5,8.97763639 4.5,8.71875 C4.5,8.45986361 4.70986361,8.25 4.96875,8.25" id="Fill-114" fill="#B4B4B4"></path>
                                <path d="M11.15625,6.1875 C11.4151364,6.1875 11.625,6.39736361 11.625,6.65625 C11.625,6.91513639 11.4151364,7.125 11.15625,7.125 C10.8973636,7.125 10.6875,6.91513639 10.6875,6.65625 C10.6875,6.39736361 10.8973636,6.1875 11.15625,6.1875" id="Fill-116" fill="#B4B4B4"></path>
                                <path d="M13.21875,11.0625 C13.4776364,11.0625 13.6875,11.2724243 13.6875,11.5313107 C13.6875,11.7901364 13.4776364,12 13.21875,12 C12.9598636,12 12.75,11.7901364 12.75,11.5313107 C12.75,11.2724243 12.9598636,11.0625 13.21875,11.0625" id="Fill-118" fill="#B4B4B4"></path>
                                <path d="M15.28125,7.6875 C15.5401364,7.6875 15.75,7.89736361 15.75,8.15625 C15.75,8.41513639 15.5401364,8.625 15.28125,8.625 C15.0223636,8.625 14.8125,8.41513639 14.8125,8.15625 C14.8125,7.89736361 15.0223636,7.6875 15.28125,7.6875" id="Fill-120" fill="#B4B4B4"></path>
                                <path d="M19.9687197,11.625 C20.22765,11.625 20.4375,11.8348636 20.4375,12.09375 C20.4375,12.3525757 20.22765,12.5625 19.9687197,12.5625 C19.70985,12.5625 19.5,12.3525757 19.5,12.09375 C19.5,11.8348636 19.70985,11.625 19.9687197,11.625" id="Fill-122" fill="#B4B4B4"></path>
                            </g>
                        </g>
                    </g>
                </g>
            </g>
        </g>
    </g>
</svg>