<?xml version="1.0" encoding="UTF-8"?>
<svg width="125px" height="22px" viewBox="0 0 125 22" version="1.1" xmlns="http://www.w3.org/2000/svg" xmlns:xlink="http://www.w3.org/1999/xlink">
    <!-- Generator: Sketch 63.1 (92452) - https://sketch.com -->
    <title>davis</title>
    <desc>Created with Sketch.</desc>
    <g id="Symbols" stroke="none" stroke-width="1" fill="none" fill-rule="evenodd">
        <g id="logoandnav" transform="translate(0.000000, -6.000000)" fill="#F2FBFD">
            <g id="logo">
                <g>
                    <g id="davis">
                        <g transform="translate(0.000000, 6.250000)">
                            <path d="M109.375777,19.1150532 L111.373291,13.8342201 L111.721911,14.1338039 C112.948187,15.1343227 114.611574,15.9842872 116.182656,16.0178284 C117.587056,16.0506073 118.273618,15.6770803 118.086721,14.489798 C117.947501,13.602862 116.945502,13.4465905 116.32035,13.3230979 L114.946082,13.0490511 C112.273068,12.5505069 110.026104,10.9024143 110.026104,7.78232051 C110.026104,3.06444592 114.096652,0.41812154 118.190468,0.41812154 C120.34322,0.41812154 122.314416,0.965452926 124.16203,2.16569425 L122.427698,6.84507268 C121.476429,6.1605273 120.035793,5.19698012 118.211827,5.13027887 C117.61223,5.10740987 116.240632,5.42185862 116.680413,6.81458068 C116.869599,7.40688777 117.720173,7.65577871 118.242341,7.78232051 L119.792064,8.15622865 C122.690117,8.83010183 124.786419,10.4781944 124.786419,13.8464169 C124.786419,18.5890662 120.690316,20.9373313 116.620148,20.9373313 C114.247315,20.9373313 111.497635,20.2626958 109.375777,19.1150532" id="Fill-10"></path>
                            <polygon id="Fill-11" points="101.049308 20.6400343 107.901577 20.6400343 107.901577 0.742099032 101.049308 0.742099032"></polygon>
                            <polyline id="Fill-12" points="93.1900831 0.742099032 100.332614 0.742099032 93.0386581 20.6400343 87.244458 20.6400343 79.9756757 0.742099032 87.0922701 0.742099032 90.1425116 12.7487049 93.1900831 0.742099032"></polyline>
                            <path d="M63.0626075,20.6400343 L70.3069786,20.6400343 L70.8558466,18.1408338 L76.0268012,18.1408338 L76.7137444,20.6400343 L83.9592598,20.6400343 L77.1752665,0.742099032 L69.5780789,0.742099032 L63.0626075,20.6400343 Z M73.4537202,6.48526709 L73.4537202,6.48526709 C73.5803527,7.33256352 74.8272252,13.4218158 74.8272252,13.4218158 L72.0889879,13.4218158 L73.4537202,6.48526709 L73.4537202,6.48526709 Z" id="Fill-13"></path>
                            <path d="M52.1710675,14.9265959 L52.6398367,14.9265959 C54.9379115,14.9265959 56.6424919,13.5487387 56.6424919,10.9527261 C56.6424919,8.15622865 55.1312931,6.59656289 52.6074157,6.59656289 L52.1710675,6.59656289 L52.1710675,14.9265959 Z M45.2756986,0.742099032 L52.2950301,0.742099032 C58.6663235,0.742099032 63.5355723,3.66513831 63.5355723,10.9782632 C63.5355723,16.8700797 59.5657194,20.6400343 53.9942705,20.6400343 L45.2756986,20.6289809 L45.2756986,0.742099032 L45.2756986,0.742099032 Z" id="Fill-14"></path>
                            <path d="M41.1048358,1.36642272 L41.4759605,4.63021009 C41.5640693,5.40661262 42.0057574,7.26586227 41.4607036,7.01659018 C41.1170413,6.86298673 40.8363138,6.0187395 40.5552049,5.27168552 C40.4125526,4.89167898 39.7336193,3.09455677 39.5558761,2.96229773 C38.6984367,2.32005999 36.5586524,1.59778076 35.1111513,1.59168236 C30.7198258,1.57491176 27.8152881,4.81087518 27.8152881,10.5536621 C27.8152881,14.6708443 29.7887718,19.6128351 34.809827,19.6128351 C36.6086189,19.6128351 40.0543962,19.0468273 40.9926973,16.489692 C41.4153143,15.3317584 41.8039845,14.304178 42.0850934,14.6148152 C42.2922062,14.8438864 42.0221586,15.7708432 41.8970518,16.268625 C41.3050829,18.6409026 41.2730434,19.3589892 41.0853832,19.4504652 C38.8170593,20.5878167 35.9083259,20.9628683 33.361563,20.9628683 C25.2669995,20.9628683 22.4696417,16.2442314 22.4696417,11.526738 C22.4696417,3.33887392 27.5032839,-0.0499306488 35.3087286,0.243935994 C37.281068,0.317879092 39.2553146,0.668537083 41.1048358,1.36642272" id="Fill-15"></path>
                            <path d="M17.1979914,1.72889636 L15.9030596,1.27685247 C15.46633,0.885030278 15.9968897,0.776402531 15.9968897,0.776402531 C15.9968897,0.776402531 17.8704405,1.12286787 22.5394421,0.729521082 C22.5394421,0.729521082 22.944895,0.80880028 22.6634047,1.13773272 L21.1331347,1.79292956 C20.1353316,2.22782169 20.1353316,1.97816845 20.1353316,3.07054432 L20.1265589,13.2110398 C20.1265589,21.1420088 12.0525922,20.9628683 10.47884,20.9628683 C9.73048767,20.9628683 2.38427653,20.9628683 2.38427653,14.5961389 L2.38427653,3.8633363 C2.38427653,1.9907464 2.58414229,2.0418205 1.9616596,1.8215158 L0.088108763,1.11867522 C0.088108763,1.11867522 -0.22770966,0.670823983 0.336415277,0.699410233 C1.86706664,0.776402531 4.08466122,1.10495382 9.23692603,0.729521082 C9.23692603,0.729521082 9.68891254,0.838911129 9.39216528,1.16631897 L7.89431631,1.60426031 C6.70732726,2.1348211 6.86447362,1.72889636 6.83243407,2.94552713 L6.8690507,13.5293001 C6.8690507,16.1253127 8.20593908,19.3372636 12.3520094,19.3372636 C18.0741205,19.3372636 18.1275198,14.3926048 18.1275198,13.2941305 L18.1374368,2.80831313 C18.1984645,1.8215158 18.0741205,2.1028045 17.1979914,1.72889636" id="Fill-17"></path>
                        </g>
                    </g>
                </g>
            </g>
        </g>
    </g>
</svg>