<?xml version="1.0" encoding="UTF-8"?>
<svg width="172px" height="59px" viewBox="0 0 172 59" version="1.1" xmlns="http://www.w3.org/2000/svg" xmlns:xlink="http://www.w3.org/1999/xlink">
    <!-- Generator: Sketch 63.1 (92452) - https://sketch.com -->
    <title>wayfinding</title>
    <desc>Created with Sketch.</desc>
    <g id="Page-1" stroke="none" stroke-width="1" fill="none" fill-rule="evenodd">
        <g id="Home" transform="translate(-1002.000000, -659.000000)">
            <g id="homegrown" transform="translate(222.000000, 502.000000)">
                <g id="portfolio" transform="translate(0.000000, 157.000000)">
                    <g id="wayfinding" transform="translate(780.000000, 0.000000)">
                        <rect id="Rectangle-Copy-12" fill="#EFEFEF" x="0" y="0" width="172" height="59" rx="2"></rect>
                        <path d="M32.6,39 L35.384,28.008 L38.192,39 L41.816,39 L46.376,22.992 L42.536,22.992 L39.752,34.56 L36.728,22.992 L34.064,22.992 L31.016,34.56 L28.208,22.992 L24.392,22.992 L28.976,39 L32.6,39 Z M51.2,39.288 C52.712,39.288 54.08,38.736 54.872,37.8 L54.872,39 L57.92,39 L57.92,31.512 C57.92,28.176 55.496,27.12 52.856,27.12 C51.032,27.12 49.208,27.696 47.792,28.944 L48.944,30.984 C49.928,30.072 51.08,29.616 52.328,29.616 C53.864,29.616 54.872,30.384 54.872,31.56 L54.872,33.12 C54.104,32.208 52.736,31.704 51.2,31.704 C49.352,31.704 47.168,32.736 47.168,35.448 C47.168,38.04 49.352,39.288 51.2,39.288 Z M52.424,37.224 C51.224,37.224 50.24,36.6 50.24,35.52 C50.24,34.392 51.224,33.768 52.424,33.768 C53.408,33.768 54.368,34.104 54.872,34.776 L54.872,36.216 C54.368,36.888 53.408,37.224 52.424,37.224 Z M62.048,43.704 C64.04,43.656 65.576,43.08 66.44,40.896 L71.888,27.408 L68.6,27.408 L65.576,35.472 L62.552,27.408 L59.288,27.408 L63.992,39.168 L63.56,40.152 C63.272,40.776 62.744,40.992 61.952,40.992 C61.664,40.992 61.256,40.92 60.992,40.8 L60.536,43.536 C60.92,43.632 61.688,43.704 62.048,43.704 Z M82.616,26.16 C83.624,26.16 84.44,25.344 84.44,24.336 C84.44,23.328 83.624,22.536 82.616,22.536 C81.632,22.536 80.792,23.328 80.792,24.336 C80.792,25.344 81.632,26.16 82.616,26.16 Z M77,39 L77,30.072 L79.352,30.072 L79.352,27.408 L77,27.408 L77,26.784 C77,25.728 77.576,25.152 78.44,25.152 C78.848,25.152 79.184,25.272 79.424,25.44 L80.048,23.232 C79.496,22.944 78.704,22.752 77.84,22.752 C75.56,22.752 73.928,24.264 73.928,26.784 L73.928,27.408 L72.008,27.408 L72.008,30.072 L73.928,30.072 L73.928,39 L77,39 Z M84.152,39 L84.152,27.408 L81.104,27.408 L81.104,39 L84.152,39 Z M90.224,39 L90.224,31.2 C90.728,30.504 91.664,29.832 92.864,29.832 C94.16,29.832 95,30.384 95,31.992 L95,39 L98.048,39 L98.048,30.816 C98.048,28.56 96.824,27.12 94.28,27.12 C92.384,27.12 90.968,28.032 90.224,28.92 L90.224,27.408 L87.176,27.408 L87.176,39 L90.224,39 Z M105.464,39.288 C106.856,39.288 108.128,38.664 109.04,37.512 L109.04,39 L112.112,39 L112.112,22.992 L109.04,22.992 L109.04,28.896 C108.128,27.72 106.832,27.12 105.464,27.12 C102.512,27.12 100.328,29.424 100.328,33.216 C100.328,37.08 102.536,39.288 105.464,39.288 Z M106.4,36.576 C104.672,36.576 103.472,35.208 103.472,33.216 C103.472,31.2 104.672,29.832 106.4,29.832 C107.432,29.832 108.536,30.384 109.04,31.152 L109.04,35.256 C108.536,36.024 107.432,36.576 106.4,36.576 Z M116.648,26.16 C117.656,26.16 118.472,25.344 118.472,24.336 C118.472,23.328 117.656,22.536 116.648,22.536 C115.664,22.536 114.824,23.328 114.824,24.336 C114.824,25.344 115.664,26.16 116.648,26.16 Z M118.184,39 L118.184,27.408 L115.136,27.408 L115.136,39 L118.184,39 Z M124.256,39 L124.256,31.2 C124.76,30.504 125.696,29.832 126.896,29.832 C128.192,29.832 129.032,30.384 129.032,31.992 L129.032,39 L132.08,39 L132.08,30.816 C132.08,28.56 130.856,27.12 128.312,27.12 C126.416,27.12 125,28.032 124.256,28.92 L124.256,27.408 L121.208,27.408 L121.208,39 L124.256,39 Z M139.856,43.704 C142.712,43.704 146.12,42.624 146.12,38.208 L146.12,27.408 L143.048,27.408 L143.048,28.896 C142.112,27.72 140.864,27.12 139.472,27.12 C136.544,27.12 134.36,29.232 134.36,33.024 C134.36,36.888 136.568,38.928 139.472,38.928 C140.888,38.928 142.136,38.256 143.048,37.104 L143.048,38.28 C143.048,40.56 141.32,41.208 139.856,41.208 C138.392,41.208 137.168,40.8 136.232,39.768 L134.864,41.976 C136.328,43.248 137.864,43.704 139.856,43.704 Z M140.432,36.216 C138.704,36.216 137.504,35.016 137.504,33.024 C137.504,31.032 138.704,29.832 140.432,29.832 C141.44,29.832 142.544,30.384 143.048,31.152 L143.048,34.896 C142.544,35.64 141.44,36.216 140.432,36.216 Z" id="Wayfnding" fill-opacity="0.4" fill="#1F1F1F" fill-rule="nonzero"></path>
                    </g>
                </g>
            </g>
        </g>
    </g>
</svg>