<?xml version="1.0" encoding="UTF-8"?>
<svg width="40px" height="40px" viewBox="0 0 40 40" version="1.1" xmlns="http://www.w3.org/2000/svg" xmlns:xlink="http://www.w3.org/1999/xlink">
    <!-- Generator: Sketch 63.1 (92452) - https://sketch.com -->
    <title>Group 7</title>
    <desc>Created with Sketch.</desc>
    <g id="Page-1" stroke="none" stroke-width="1" fill="none" fill-rule="evenodd">
        <g id="Home" transform="translate(-647.000000, -1102.000000)" fill="#43B02A">
            <g id="Group-10" transform="translate(0.000000, 1006.000000)">
                <g id="Group-7" transform="translate(647.000000, 96.000000)">
                    <rect id="Rectangle" stroke="#43B02A" stroke-width="1.32" fill-opacity="0.0762128497" transform="translate(19.800000, 19.800000) rotate(-45.000000) translate(-19.800000, -19.800000) " x="5.94" y="5.94" width="27.72" height="27.72" rx="1.32"></rect>
                    <g id="Fill-908-+-Fill-909-+-Fill-910" transform="translate(12.540000, 13.200000)">
                        <path d="M1.814175,9.0750825 L1.814175,11.2819575 L5.939175,10.1030325 L5.939175,9.0750825 L7.589175,9.0750825 L7.589175,10.7250825 C7.589175,11.0938575 7.344975,11.4172575 6.99105,11.5187325 L6.99105,11.5187325 L1.814175,12.9979575 L1.814175,14.8500825 L0.164175,14.8500825 L0.164175,9.0750825 L1.814175,9.0750825 Z M5.9390925,0.000164999999 L5.9390925,3.300165 L6.7640925,3.300165 L6.7640925,0.000164999999 L15.0140925,0.000164999999 C15.3473925,0.000164999999 15.6485175,0.201465 15.7763925,0.510015 C15.9042675,0.818565 15.8333175,1.173315 15.5973675,1.40844 L15.5973675,1.40844 L11.7140925,5.29254 L11.7140925,7.425165 C11.7140925,7.880565 11.3444925,8.250165 10.8890925,8.250165 L10.8890925,8.250165 L4.2890925,8.250165 C2.0145675,8.250165 0.1640925,6.400515 0.1640925,4.125165 C0.1640925,2.133615 1.5839175,0.467115 3.4640925,0.084315 L3.4640925,0.084315 L3.4640925,4.125165 L4.2890925,4.125165 L4.2890925,0.000164999999 L5.9390925,0.000164999999 Z M14.16525,4.00752 C14.17185,4.047945 14.189175,4.08342 14.189175,4.125495 L14.189175,4.125495 L14.189175,6.600495 C14.189175,7.055895 13.819575,7.425495 13.364175,7.425495 L13.364175,7.425495 L12.539175,7.425495 L12.539175,5.63442 Z" id="security"></path>
                    </g>
                </g>
            </g>
        </g>
    </g>
</svg>