<?xml version="1.0" encoding="UTF-8"?>
<svg width="40px" height="40px" viewBox="0 0 40 40" version="1.1" xmlns="http://www.w3.org/2000/svg" xmlns:xlink="http://www.w3.org/1999/xlink">
    <!-- Generator: Sketch 63.1 (92452) - https://sketch.com -->
    <title>Group 5</title>
    <desc>Created with Sketch.</desc>
    <g id="Page-1" stroke="none" stroke-width="1" fill="none" fill-rule="evenodd">
        <g id="Home" transform="translate(-222.000000, -502.000000)">
            <g id="homegrown" transform="translate(222.000000, 502.000000)">
                <g id="Group-5">
                    <circle id="Oval" fill-opacity="0.357654065" fill="#0078FF" cx="20" cy="20" r="20"></circle>
                    <g id="Fill-621-+-Fill-622-+-Fill-623" transform="translate(11.000000, 7.000000)">
                        <path d="M14.6738,17.0005 L3.3248,17.0005 C3.0108,17.0005 2.7158,17.1485 2.5268,17.3985 C2.3378,17.6485 2.2778,17.9735 2.3638,18.2755 L3.7928,23.2755 C3.9148,23.7045 4.3068,24.0005 4.7538,24.0005 L13.2448,24.0005 C13.6918,24.0005 14.0838,23.7045 14.2068,23.2755 L15.6358,18.2755 C15.7218,17.9735 15.6608,17.6485 15.4718,17.3985 C15.2828,17.1485 14.9878,17.0005 14.6738,17.0005" id="Fill-623" fill="#0078FF"></path>
                        <g id="Fill-610-+-Fill-611-+-Fill-612">
                            <path d="M13.021,5.2935 C13.355,6.2245 13.575,7.1905 13.575,8.1435 C13.575,10.5055 12.269,12.2955 11.054,13.4555 C12.363,13.4885 14.074,13.2265 15.379,11.9215 C17.809,9.4915 17.893,4.3785 17.893,4.3785 C17.893,4.3785 15.366,4.4235 13.021,5.2935" id="Fill-610" fill="#0167DA"></path>
                            <path d="M4.9868,5.2935 C2.6418,4.4235 0.1148,4.3785 0.1148,4.3785 C0.1148,4.3785 0.1988,9.4915 2.6288,11.9215 C3.9328,13.2265 5.6448,13.4885 6.9538,13.4555 C5.7378,12.2955 4.4328,10.5055 4.4328,8.1435 C4.4328,7.1905 4.6528,6.2245 4.9868,5.2935" id="Fill-611" fill="#0167DA"></path>
                            <path d="M12.5596,7.8894 C12.5596,4.4524 9.0036,0.7774 9.0036,0.7774 C9.0036,0.7774 5.4486,4.4524 5.4486,7.8894 C5.4486,10.1264 6.9526,11.7064 8.0036,12.5404 L8.0036,18.0004 L10.0036,18.0004 L10.0036,12.5404 C11.0556,11.7064 12.5596,10.1264 12.5596,7.8894" id="Fill-612" fill="#0078FF"></path>
                        </g>
                    </g>
                </g>
            </g>
        </g>
    </g>
</svg>