<?xml version="1.0" encoding="UTF-8"?>
<svg width="40px" height="40px" viewBox="0 0 40 40" version="1.1" xmlns="http://www.w3.org/2000/svg" xmlns:xlink="http://www.w3.org/1999/xlink">
    <!-- Generator: Sketch 63.1 (92452) - https://sketch.com -->
    <title>implement-a-code-review-process</title>
    <desc>Created with Sketch.</desc>
    <g id="Page-1" stroke="none" stroke-width="1" fill="none" fill-rule="evenodd">
        <g id="SDL-Copy" transform="translate(-124.000000, -1462.000000)" fill="#00C7B1">
            <g id="implement-a-code-review-process" transform="translate(124.000000, 1462.000000)">
                <g id="Group-7-Copy-3">
                    <rect id="Rectangle" stroke="#00C7B1" stroke-width="1.32" fill-opacity="0.0762128497" transform="translate(19.800000, 19.800000) rotate(-45.000000) translate(-19.800000, -19.800000) " x="5.94" y="5.94" width="27.72" height="27.72" rx="1.32"></rect>
                    <g id="Fill-425" transform="translate(11.000000, 12.000000)">
                        <path d="M16.5,3.750375 L15,3.750375 L15,2.250375 C15,1.836375 15.33675,1.500375 15.75,1.500375 C16.16325,1.500375 16.5,1.836375 16.5,2.250375 L16.5,3.750375 Z M13.5,3.750375 L8.25,3.750375 L8.25,2.250375 L13.5,2.250375 L13.5,3.750375 Z M13.5,6.000375 L8.25,6.000375 L8.25,4.500375 L13.5,4.500375 L13.5,6.000375 Z M13.5,8.250375 L8.25,8.250375 L8.25,6.750375 L13.5,6.750375 L13.5,8.250375 Z M7.77525,12.750375 C8.0535,12.000375 8.6145,11.250375 9.75,11.250375 C10.08675,11.250375 10.5,11.664375 10.5,12.000375 C10.5,12.261375 10.55775,12.512625 10.64775,12.750375 L7.77525,12.750375 Z M15.75,0.000375 L9,0.000375 C7.7595,0.000375 6.75,1.009875 6.75,2.250375 L6.75,9.000375 L10.5,9.000375 C12,9.000375 12.75,10.500375 12.75,11.250375 L12.75,12.750375 C12.3345,12.750375 12,12.340125 12,12.000375 C12,10.843875 10.9065,9.750375 9.75,9.750375 L3.75,9.750375 C0.918,9.750375 0.05025,13.925625 0.015,14.103375 C-0.03,14.323875 0.02775,14.551875 0.17025,14.725875 C0.31275,14.899875 0.525,15.000375 0.75,15.000375 L6.75,15.000375 C7.164,15.000375 7.5,14.664375 7.5,14.250375 L12.75,14.250375 C13.9905,14.250375 15,13.240875 15,12.000375 L15,5.250375 L17.25,5.250375 C17.664,5.250375 18,4.914375 18,4.500375 L18,2.250375 C18,1.009875 16.9905,0.000375 15.75,0.000375 L15.75,0.000375 Z"></path>
                    </g>
                </g>
            </g>
        </g>
    </g>
</svg>