<?xml version="1.0" encoding="UTF-8"?>
<svg width="40px" height="40px" viewBox="0 0 40 40" version="1.1" xmlns="http://www.w3.org/2000/svg" xmlns:xlink="http://www.w3.org/1999/xlink">
    <!-- Generator: Sketch 63.1 (92452) - https://sketch.com -->
    <title>manage-the-security-risk-of-third-party-components</title>
    <desc>Created with Sketch.</desc>
    <g id="Page-1" stroke="none" stroke-width="1" fill="none" fill-rule="evenodd">
        <g id="SDL-Copy" transform="translate(-124.000000, -1368.000000)" fill="#00C7B1">
            <g id="manage-the-security-risk-of-third-party-components" transform="translate(124.000000, 1368.000000)">
                <g id="Group-7-Copy-3" fill-opacity="0.0762128497" stroke="#00C7B1" stroke-width="1.32">
                    <rect id="Rectangle" transform="translate(19.800000, 19.800000) rotate(-45.000000) translate(-19.800000, -19.800000) " x="5.94" y="5.94" width="27.72" height="27.72" rx="1.32"></rect>
                </g>
                <g id="Fill-262" transform="translate(12.000000, 12.000000)">
                    <path d="M14.8199995,10.1403896 L13.2599995,10.1403896 L13.2599995,9.36038966 C13.2599995,8.0702697 12.2101196,7.02038974 10.9199996,7.02038974 L8.57999969,7.02038974 L8.57999969,5.4603898 L10.1399996,5.4603898 C10.5705596,5.4603898 10.9199996,5.11094981 10.9199996,4.68038983 L10.9199996,0.780389971 C10.9199996,0.349829987 10.5705596,0.000389999986 10.1399996,0.000389999986 L5.4599998,0.000389999986 C5.02943982,0.000389999986 4.67999983,0.349829987 4.67999983,0.780389971 L4.67999983,4.68038983 C4.67999983,5.11094981 5.02943982,5.4603898 5.4599998,5.4603898 L7.01999974,5.4603898 L7.01999974,7.02038974 L4.67999983,7.02038974 C3.38987988,7.02038974 2.33999991,8.0702697 2.33999991,9.36038966 L2.33999991,10.1403896 L0.779999971,10.1403896 C0.349439987,10.1403896 0,10.4898296 0,10.9203896 L0,14.8203895 C0,15.2509494 0.349439987,15.6003894 0.779999971,15.6003894 L5.4599998,15.6003894 C5.89055978,15.6003894 6.23999977,15.2509494 6.23999977,14.8203895 L6.23999977,10.9203896 C6.23999977,10.4898296 5.89055978,10.1403896 5.4599998,10.1403896 L3.89999986,10.1403896 L3.89999986,9.36038966 C3.89999986,8.93060967 4.25021984,8.58038969 4.67999983,8.58038969 L10.9199996,8.58038969 C11.3497796,8.58038969 11.6999996,8.93060967 11.6999996,9.36038966 L11.6999996,10.1403896 L10.1399996,10.1403896 C9.70943964,10.1403896 9.35999966,10.4898296 9.35999966,10.9203896 L9.35999966,14.8203895 C9.35999966,15.2509494 9.70943964,15.6003894 10.1399996,15.6003894 L14.8199995,15.6003894 C15.2505594,15.6003894 15.5999994,15.2509494 15.5999994,14.8203895 L15.5999994,10.9203896 C15.5999994,10.4898296 15.2505594,10.1403896 14.8199995,10.1403896"></path>
                </g>
            </g>
        </g>
    </g>
</svg>