<?xml version="1.0" encoding="UTF-8"?>
<svg width="40px" height="40px" viewBox="0 0 40 40" version="1.1" xmlns="http://www.w3.org/2000/svg" xmlns:xlink="http://www.w3.org/1999/xlink">
    <title>pencil</title>
    <g id="Page-1" stroke="none" stroke-width="1" fill="none" fill-rule="evenodd">
        <g id="Home" transform="translate(-200.000000, -1677.000000)" fill="#0078FF">
            <g id="pencil" transform="translate(200.000000, 1677.000000)">
                <circle id="Oval" fill-opacity="0.357654065" cx="20" cy="20" r="20"></circle>
                <g id="Fill-515" transform="translate(9.332900, 10.000000)">
                    <path d="M7.34239834,10.8347952 C7.88170397,10.6060714 8.84960517,11.666081 10.246102,14.0148239 L3.76668458,20.2823372 L0.533503497,17.4866617 C4.53346111,13.2808078 6.80309272,11.063519 7.34239834,10.8347952 Z" id="Path-4" fill-opacity="0.55"></path>
                    <polygon id="Path-3" fill-opacity="0.55" points="1.32941728 2.24893582 2.46665069 1.56448017 6.32777468 3.00122452 20.1760951 17.4866617 19.0280777 19.728405 17.1848782 20.1051102 2.78466665 6.24569571"></polygon>
                    <g id="Group-238">
                        <path d="M16.4203523,18.8391085 C16.4510459,18.8679904 17.0444551,19.4189388 17.7566191,19.4189388 C18.1602031,19.4189388 18.5325454,19.2429059 18.8939257,18.8811517 C20.0485888,17.7258783 18.9881989,16.5475725 18.8539145,16.4077332 L5.51116113,3.06505608 L1.58932598,1.56448017 L3.09002261,5.50191531 L16.4203523,18.8391085 Z M17.7566191,20.5639757 C16.5528097,20.5639757 15.655388,19.6924023 15.6173865,19.6554774 L2.19442791,6.22505799 C2.13760825,6.1680255 2.09339488,6.09965964 2.06452831,6.02434751 L0.0643302614,0.776627553 C-0.0160576761,0.565680471 0.0347328844,0.327131128 0.19422986,0.167549843 C0.354092236,0.00796855828 0.592332851,-0.0428488497 0.803351187,0.0377643766 L6.03423082,2.03920251 C6.10913776,2.06790155 6.17746751,2.11213828 6.23410447,2.16898797 L19.666198,15.6012354 C19.7206426,15.6566227 20.1795846,16.1362805 20.4251332,16.8583264 C20.7702533,17.8739434 20.51356,18.8800549 19.7032861,19.6909399 C19.1241275,20.2702218 18.4693313,20.5639757 17.7566191,20.5639757 L17.7566191,20.5639757 Z" id="Fill-196"></path>
                        <path d="M2.76138211,6.24569571 C2.71716874,6.24569571 2.67222457,6.23637309 2.62892471,6.21663108 C2.46942773,6.1435125 2.39963639,5.95468379 2.47271633,5.7951025 L3.48432544,3.58856678 C3.51246122,3.52732997 3.55959778,3.47669536 3.61806174,3.44360921 L5.68129124,2.28943254 C5.83512452,2.20370101 6.02860367,2.25853994 6.1142899,2.41190615 C6.19979343,2.56508956 6.14498348,2.75885378 5.99188099,2.8447681 L4.01890523,3.94831016 L3.05077868,6.06034013 C2.99724762,6.17696425 2.88196401,6.24569571 2.76138211,6.24569571" id="Fill-198"></path>
                        <path d="M15.5664315,19.1123161 C15.48513,19.1123161 15.4036459,19.0812407 15.3417107,19.0192727 C15.2174748,18.8949711 15.2174748,18.6935295 15.3417107,18.5694107 L18.5784213,15.3306235 C18.7026572,15.2065047 18.9039925,15.2065047 19.0280457,15.3306235 C19.1522816,15.4549251 19.1522816,15.656184 19.0280457,15.7804855 L15.7911523,19.0192727 C15.7292171,19.0812407 15.6477329,19.1123161 15.5664315,19.1123161" id="Fill-200"></path>
                        <path d="M13.8129513,10.7751719 C13.6662433,10.7751719 13.5199008,10.719419 13.4082711,10.6075476 C13.1848292,10.3839876 13.1848292,10.0215022 13.4082711,9.79775941 L19.6175085,3.58523988 L17.4084845,1.38638161 L11.2229981,7.5800731 C11.0001043,7.80381593 10.6374451,7.80399873 10.4138205,7.58043869 C10.1903785,7.35706145 10.1900131,6.99439333 10.4138205,6.7708333 L17.0023427,0.172796101 C17.2254193,-0.0505811387 17.587165,-0.051129528 17.8109723,0.171699322 L20.8315491,3.17833503 C20.939342,3.28563653 21,3.43132529 21,3.58359472 C21.0003637,3.73568135 20.9404382,3.8815529 20.8326453,3.98922 L14.2176315,10.6075476 C14.1060019,10.7192362 13.9592939,10.7751719 13.8129513,10.7751719" id="Fill-202"></path>
                        <path d="M17.0951177,7.4171832 C17.0138163,7.4171832 16.9319668,7.38610781 16.8703969,7.32395702 L15.4765797,5.92958584 C15.3523438,5.80546706 15.3523438,5.60402539 15.4765797,5.47990662 C15.6006329,5.35578784 15.8019681,5.35578784 15.926204,5.47990662 L17.3198386,6.8742778 C17.4440745,6.99839657 17.4440745,7.19983824 17.3198386,7.32395702 C17.2579033,7.38610781 17.1764192,7.4171832 17.0951177,7.4171832" id="Fill-204"></path>
                        <path d="M17.9040579,6.60744985 C17.8227565,6.60744985 17.7412723,6.57637445 17.6793371,6.51440646 L16.6900173,5.52474658 C16.5663295,5.40044501 16.5663295,5.19900334 16.6903827,5.07488456 C16.8146186,4.95076579 17.0159539,4.95076579 17.1400071,5.07488456 L18.1287787,6.06454444 C18.2530146,6.18866322 18.2530146,6.39028769 18.1287787,6.51440646 C18.0668435,6.57637445 17.9853593,6.60744985 17.9040579,6.60744985" id="Fill-206"></path>
                        <path d="M18.7133635,5.79780789 C18.632062,5.79780789 18.5505779,5.7667325 18.4886426,5.70458171 L17.4993229,4.71528742 C17.3752697,4.59098585 17.3752697,4.38954418 17.4993229,4.26542541 C17.6235588,4.14112383 17.824894,4.14112383 17.9489473,4.26542541 L18.9380843,5.25490249 C19.0623202,5.37883847 19.0623202,5.58046293 18.9380843,5.70458171 C18.876149,5.7667325 18.7946649,5.79780789 18.7133635,5.79780789" id="Fill-208"></path>
                        <path d="M19.522669,4.98816594 C19.4413676,4.98816594 19.3598834,4.95709054 19.2979482,4.89493976 L18.3086285,3.90546267 C18.1845753,3.7811611 18.1845753,3.57990223 18.3086285,3.45560065 C18.4328644,3.33148188 18.6341996,3.33148188 18.7582528,3.45560065 L19.7473898,4.44526054 C19.8716257,4.56956211 19.8716257,4.77100378 19.7473898,4.89493976 C19.6854546,4.95709054 19.6039705,4.98816594 19.522669,4.98816594" id="Fill-210"></path>
                        <path d="M14.6672193,9.84620046 C14.5859179,9.84620046 14.5044337,9.81512507 14.4424985,9.75297428 L13.4535442,8.7633144 C13.329491,8.63919562 13.329491,8.43793675 13.4535442,8.31363518 C13.5774147,8.1895164 13.7787499,8.1895164 13.9028031,8.31363518 L14.8919401,9.30311226 C15.016176,9.42741384 15.016176,9.6288555 14.8919401,9.75297428 C14.8300049,9.81512507 14.7485208,9.84620046 14.6672193,9.84620046" id="Fill-212"></path>
                        <path d="M15.4765066,9.03646711 C15.3952052,9.03646711 15.313721,9.00539171 15.2517858,8.94342372 L14.2624661,7.95376384 C14.1384129,7.82946227 14.1384129,7.6280206 14.2624661,7.50390183 C14.386702,7.37978305 14.5880372,7.37978305 14.7120904,7.50390183 L15.7010447,8.49337891 C15.8250979,8.61768048 15.8250979,8.81912215 15.7010447,8.94342372 C15.6389268,9.00539171 15.557808,9.03646711 15.4765066,9.03646711" id="Fill-214"></path>
                        <path d="M16.2858122,8.22691655 C16.2045107,8.22691655 16.1230266,8.19584116 16.0610913,8.13387317 L15.0717716,7.14421329 C14.9477184,7.01991171 14.9477184,6.81847005 15.0717716,6.69435127 C15.1960075,6.57023249 15.3973428,6.57023249 15.521396,6.69435127 L16.510533,7.68382835 C16.6347689,7.80812993 16.6347689,8.00957159 16.510533,8.13387317 C16.4485977,8.19584116 16.3671136,8.22691655 16.2858122,8.22691655" id="Fill-216"></path>
                        <path d="M3.59352515,21 C3.44791336,21 3.30230157,20.9447955 3.19067196,20.8342036 L0.16918171,17.8361594 C0.0612060938,17.7290407 0.000184341248,17.5829863 0,17.4307169 C-0.000363758326,17.2784475 0.0602925945,17.1320275 0.168085511,17.0243604 L6.7458285,10.4566674 C6.96963582,10.233473 7.33174694,10.2338386 7.55518887,10.4575814 C7.7784481,10.681507 7.7777173,11.0438096 7.55445807,11.2671868 L1.38340497,17.4283405 L3.59206355,19.6195213 L9.99167418,13.2165279 C10.2152988,12.9929679 10.5775926,12.9929679 10.8008518,13.2165279 C11.0242938,13.440088 11.0242938,13.8025733 10.8008518,14.0263161 L3.99820533,20.8323757 C3.88675842,20.9440643 3.74023313,21 3.59352515,21" id="Fill-218"></path>
                        <path d="M7.02450059,17.4929408 C6.94319915,17.4929408 6.86171502,17.4620482 6.79977977,17.3997146 L5.40632795,16.0053434 C5.28209205,15.8812246 5.28209205,15.679783 5.40632795,15.5554814 C5.53001575,15.4315454 5.731351,15.4315454 5.8555869,15.5554814 L7.24922142,16.9500354 C7.37345732,17.0741542 7.37345732,17.2755958 7.24922142,17.3997146 C7.18728616,17.4620482 7.10580203,17.4929408 7.02450059,17.4929408" id="Fill-220"></path>
                        <path d="M6.21519503,18.3026741 C6.13389359,18.3026741 6.05240946,18.2715987 5.99047421,18.209448 L5.00115447,17.2199709 C4.87710127,17.0956693 4.87710127,16.8942276 5.00115447,16.7699261 C5.12539038,16.6459901 5.32672562,16.6459901 5.45077882,16.7699261 L6.43991586,17.7595859 C6.56415176,17.8838875 6.56415176,18.0853292 6.43991586,18.209448 C6.3779806,18.2715987 6.29649647,18.3026741 6.21519503,18.3026741" id="Fill-222"></path>
                        <path d="M5.40588947,19.1123161 C5.32458803,19.1123161 5.2431039,19.0812407 5.18116864,19.0192727 L4.19184891,18.0296128 C4.06816111,17.9053113 4.06816111,17.7038696 4.19221431,17.5797508 C4.31645022,17.455632 4.51778546,17.455632 4.64183866,17.5797508 L5.63061029,18.5694107 C5.7548462,18.6935295 5.7548462,18.8949711 5.63061029,19.0192727 C5.56867504,19.0812407 5.48719091,19.1123161 5.40588947,19.1123161" id="Fill-224"></path>
                        <path d="M4.59660218,19.9221408 C4.51530074,19.9221408 4.434182,19.8910654 4.37206405,19.8289147 L3.38292702,18.8392548 C3.25887382,18.7149532 3.25887382,18.5135115 3.38292702,18.3893928 C3.50679753,18.265274 3.70813277,18.265274 3.83218597,18.3893928 L4.821323,19.3790526 C4.94555891,19.5033542 4.94555891,19.7047959 4.821323,19.8289147 C4.75938775,19.8910654 4.67790362,19.9221408 4.59660218,19.9221408" id="Fill-226"></path>
                        <path d="M9.45205187,15.0639235 C9.37075044,15.0639235 9.2892663,15.0328481 9.22733105,14.9708801 L8.23837672,13.9814031 C8.11432351,13.8571015 8.11432351,13.6556598 8.23837672,13.531541 C8.36261262,13.4072395 8.56358247,13.4072395 8.68763567,13.531541 L9.6767727,14.5210181 C9.8010086,14.6451369 9.8010086,14.8465786 9.6767727,14.9708801 C9.61483745,15.0328481 9.53335331,15.0639235 9.45205187,15.0639235" id="Fill-228"></path>
                        <path d="M8.64274631,15.8736569 C8.56144488,15.8736569 8.47996074,15.8425815 8.41802549,15.7804307 L7.42870576,14.7909536 C7.30465255,14.666652 7.30465255,14.4653932 7.42870576,14.3410916 C7.55294166,14.2169728 7.7546423,14.2169728 7.87833011,14.3410916 L8.86746714,15.3305687 C8.99170304,15.4548702 8.99170304,15.6563119 8.86746714,15.7804307 C8.80553189,15.8425815 8.72404775,15.8736569 8.64274631,15.8736569" id="Fill-230"></path>
                        <path d="M7.83345902,16.6833902 C7.75215759,16.6833902 7.67067345,16.6523148 7.6087382,16.590164 L6.61978387,15.6005042 C6.49573066,15.4762026 6.49573066,15.2749437 6.61978387,15.1508249 C6.74401977,15.0265234 6.94535501,15.0265234 7.06940822,15.1508249 L8.05817985,16.1404848 C8.18241575,16.2646036 8.18241575,16.4660453 8.05817985,16.590164 C7.9962446,16.6523148 7.91476046,16.6833902 7.83345902,16.6833902" id="Fill-232"></path>
                        <polygon id="Fill-234" points="2.46665069 1.31350067 1.38780803 2.3930964 0.533503497 0.818853528"></polygon>
                        <path d="M1.16027363,1.30743183 L1.46392079,1.8673373 L1.8475905,1.483282 L1.16027363,1.30743183 Z M1.38773495,2.71130842 C1.37257086,2.71130842 1.35722408,2.71021165 1.34205999,2.70801809 C1.24267127,2.69357717 1.15625423,2.63307155 1.10838687,2.54496367 L0.254082334,0.970538007 C0.193791381,0.859397777 0.204936072,0.723031639 0.282766212,0.623407584 C0.360413651,0.523600732 0.49031325,0.479363996 0.612174056,0.510804982 L2.54550395,1.00526933 C2.65622007,1.03378557 2.7431852,1.1193343 2.77351338,1.22937775 C2.80347615,1.339604 2.77205178,1.4575077 2.69148114,1.53848652 L1.61263848,2.61808224 C1.55234752,2.67822227 1.47122879,2.71130842 1.38773495,2.71130842 L1.38773495,2.71130842 Z" id="Fill-236"></path>
                    </g>
                    <polygon id="Path-5" fill-opacity="0.55" points="10.9684333 7.137743 17.4130155 0.818853528 20.1760951 3.72219276 13.805501 10.4917095"></polygon>
                </g>
            </g>
        </g>
    </g>
</svg>