<?xml version="1.0" encoding="UTF-8"?>
<svg width="40px" height="40px" viewBox="0 0 40 40" version="1.1" xmlns="http://www.w3.org/2000/svg" xmlns:xlink="http://www.w3.org/1999/xlink">
    <!-- Generator: Sketch 63.1 (92452) - https://sketch.com -->
    <title>Group 6</title>
    <desc>Created with Sketch.</desc>
    <g id="Page-1" stroke="none" stroke-width="1" fill="none" fill-rule="evenodd">
        <g id="Home" transform="translate(-200.000000, -1006.000000)" fill="#0078FF">
            <g id="Group-10" transform="translate(0.000000, 1006.000000)">
                <g id="Group-6" transform="translate(200.000000, 0.000000)">
                    <circle id="Oval" fill-opacity="0.357654065" cx="20" cy="20" r="20"></circle>
                    <g id="Fill-515" transform="translate(8.000000, 8.000000)">
                        <path d="M14.3938867,2.96289063 C12.6068452,6.4480013 11.8090163,8.8262972 12.0004,10.0977783 C12.1917837,11.3692594 12.8886312,12.1582406 14.0909424,12.4647217 L22.1542969,9.61118575 L14.3938867,2.96289063 Z" id="Path-2" fill-opacity="0.551327579"></path>
                        <path d="M4.97045144,11.684082 C3.18340989,15.1691927 2.38558098,17.5474886 2.5769647,18.8189697 C2.76834843,20.0904508 3.46519589,20.879432 4.66750709,21.1859131 L12.7308616,18.3323772 L4.97045144,11.684082 Z" id="Path-2-Copy" fill-opacity="0.551327579" transform="translate(7.640028, 16.434998) rotate(-180.000000) translate(-7.640028, -16.434998) "></path>
                        <path d="M12.9019,11.104 C12.7929,10.078 12.8179,9.053 12.9999,8.054 L15.9509,11.007 C14.9539,11.187 13.9279,11.212 12.9019,11.104 L12.9019,11.104 Z M4.0289,14.642 C4.6139,14.252 5.2289,13.921 5.8729,13.656 L10.3499,18.133 C10.0849,18.777 9.7539,19.392 9.3649,19.978 L4.0289,14.642 Z M11.0989,12.907 C11.2079,13.934 11.1829,14.959 11.0019,15.957 L8.0489,13.004 C9.0469,12.823 10.0729,12.799 11.0989,12.907 L11.0989,12.907 Z M19.9709,9.37 C19.3869,9.758 18.7719,10.089 18.1279,10.355 L13.6509,5.877 C13.9169,5.234 14.2469,4.62 14.6359,4.035 L19.9709,9.37 Z M22.2539,7.41 L21.6189,8.044 C21.5949,8.068 21.5669,8.087 21.5419,8.112 L15.8939,2.464 C15.9179,2.439 15.9379,2.411 15.9629,2.386 L16.5959,1.752 L15.1819,0.338 L14.5479,0.972 C11.9279,3.593 10.6059,7.217 10.8659,10.872 C7.2109,10.613 3.5869,11.934 0.9669,14.553 L0.3329,15.188 L1.7469,16.602 L2.3809,15.967 C2.4059,15.943 2.4339,15.923 2.4589,15.899 L8.1069,21.547 C8.0829,21.572 8.0629,21.6 8.0379,21.625 L7.4039,22.258 L8.8189,23.672 L9.4519,23.039 C12.0729,20.419 13.3939,16.795 13.1349,13.14 C16.7919,13.401 20.4129,12.079 23.0329,9.458 L23.6679,8.824 L22.2539,7.41 Z"></path>
                    </g>
                </g>
            </g>
        </g>
    </g>
</svg>