<?xml version="1.0" encoding="UTF-8"?>
<svg width="40px" height="40px" viewBox="0 0 40 40" version="1.1" xmlns="http://www.w3.org/2000/svg" xmlns:xlink="http://www.w3.org/1999/xlink">
    <!-- Generator: Sketch 63.1 (92452) - https://sketch.com -->
    <title>use-recommended-tools-and-platforms</title>
    <desc>Created with Sketch.</desc>
    <g id="Page-1" stroke="none" stroke-width="1" fill="none" fill-rule="evenodd">
        <g id="SDL-Copy" transform="translate(-124.000000, -1081.000000)">
            <g id="use-recommended-tools-and-platforms" transform="translate(124.000000, 1081.000000)">
                <g id="Group-7-Copy-2">
                    <rect id="Rectangle" stroke="#00C7B1" stroke-width="1.32" fill-opacity="0.0762128497" fill="#00C7B1" transform="translate(19.800000, 19.800000) rotate(-45.000000) translate(-19.800000, -19.800000) " x="5.94" y="5.94" width="27.72" height="27.72" rx="1.32"></rect>
                    <g id="Fill-908-+-Fill-909-+-Fill-910" transform="translate(12.540000, 13.200000)"></g>
                </g>
                <g id="Group" transform="translate(14.000000, 12.000000)" fill="#00C7B1">
                    <polygon id="Fill-308" points="1.5 15.750375 3 13.500375 0 13.500375"></polygon>
                    <polygon id="Fill-309" points="0 12.75 3 12.75 3 5.25 0 5.25"></polygon>
                    <path d="M1.5,2.250375 C0.67125,2.250375 0,2.973375 0,3.865875 L0,4.500375 L3,4.500375 L3,3.865875 C3,2.973375 2.32875,2.250375 1.5,2.250375" id="Fill-310"></path>
                    <polygon id="Fill-311" points="5.25 0.000375 5.25 1.500375 7.5 1.500375 7.5 3.000375 5.25 3.000375 5.25 5.250375 7.5 5.250375 7.5 6.750375 5.25 6.750375 5.25 9.000375 7.5 9.000375 7.5 10.500375 5.25 10.500375 5.25 12.750375 7.5 12.750375 7.5 14.250375 5.25 14.250375 5.25 15.750375 11.25 15.750375 11.25 0.000375"></polygon>
                </g>
            </g>
        </g>
    </g>
</svg>