<?xml version="1.0" encoding="UTF-8"?>
<svg width="40px" height="40px" viewBox="0 0 40 40" version="1.1" xmlns="http://www.w3.org/2000/svg" xmlns:xlink="http://www.w3.org/1999/xlink">
    <!-- Generator: Sketch 63.1 (92452) - https://sketch.com -->
    <title>define-security-requirements</title>
    <desc>Created with Sketch.</desc>
    <g id="Page-1" stroke="none" stroke-width="1" fill="none" fill-rule="evenodd">
        <g id="SDL-Copy" transform="translate(-124.000000, -906.000000)" fill="#0078FF">
            <g id="define-security-requirements" transform="translate(124.000000, 906.000000)">
                <g id="Group-7-Copy-3">
                    <rect id="Rectangle" stroke="#0078FF" stroke-width="1.32" fill-opacity="0.0969187063" transform="translate(19.800000, 19.800000) rotate(-45.000000) translate(-19.800000, -19.800000) " x="5.94" y="5.94" width="27.72" height="27.72" rx="1.32"></rect>
                    <g id="Group" transform="translate(12.000000, 12.000000)">
                        <polygon id="Fill-710" points="9.81700239 3.90078016 7.34284229 3.90078016 1.10284204 10.1407804 1.55992206 10.1407804 1.55992206 15.6007806 3.11992212 15.6007806 3.11992212 10.1407804 3.57700214 10.1407804"></polygon>
                        <path d="M13.2600005,3.90078016 L13.2600005,2.90550012 C13.7241005,2.6356201 14.0400006,2.13876008 14.0400006,1.56078006 C14.0400006,0.699660028 13.3419005,0.000780000031 12.4800005,0.000780000031 C11.6181005,0.000780000031 10.9200004,0.699660028 10.9200004,1.56078006 C10.9200004,2.13876008 11.2359004,2.6356201 11.7000005,2.90550012 L11.7000005,4.22370017 L5.78292023,10.1407804 L8.25708033,10.1407804 L14.4970806,3.90078016 L13.2600005,3.90078016 Z" id="Fill-711"></path>
                        <path d="M10.4629984,10.1407804 L12.4800785,10.1407804 L12.4800785,15.6007806 L14.0400786,15.6007806 L14.0400786,10.1407804 L14.8200786,10.1407804 C15.2506386,10.1407804 15.6000786,9.79134039 15.6000786,9.36078037 L15.6000786,5.0037002 L10.4629984,10.1407804 Z" id="Fill-712"></path>
                        <path d="M3.90000015,3.90078016 L3.90000015,2.90550012 C4.36410017,2.6356201 4.68000019,2.13876008 4.68000019,1.56078006 C4.68000019,0.699660028 3.98190016,0.000780000031 3.12000012,0.000780000031 C2.25810009,0.000780000031 1.56000006,0.699660028 1.56000006,1.56078006 C1.56000006,2.13876008 1.87590007,2.6356201 2.34000009,2.90550012 L2.34000009,3.90078016 L0.780000031,3.90078016 C0.349440014,3.90078016 0,4.25100017 0,4.68078019 L0,9.03786036 L5.1370802,3.90078016 L3.90000015,3.90078016 Z" id="Fill-713"></path>
                    </g>
                </g>
            </g>
        </g>
    </g>
</svg>