<?xml version="1.0" encoding="UTF-8"?>
<svg width="40px" height="40px" viewBox="0 0 40 40" version="1.1" xmlns="http://www.w3.org/2000/svg" xmlns:xlink="http://www.w3.org/1999/xlink">
    <!-- Generator: Sketch 63.1 (92452) - https://sketch.com -->
    <title>define-metrics-and-compliance-reporting</title>
    <desc>Created with Sketch.</desc>
    <g id="Page-1" stroke="none" stroke-width="1" fill="none" fill-rule="evenodd">
        <g id="SDL-Copy" transform="translate(-124.000000, -1264.000000)" fill="#0078FF">
            <g id="define-metrics-and-compliance-reporting" transform="translate(124.000000, 1264.000000)">
                <g id="Group-7-Copy-3" fill-opacity="0.0969187063" stroke="#0078FF" stroke-width="1.32">
                    <rect id="Rectangle" transform="translate(19.800000, 19.800000) rotate(-45.000000) translate(-19.800000, -19.800000) " x="5.94" y="5.94" width="27.72" height="27.72" rx="1.32"></rect>
                </g>
                <g id="Group" transform="translate(12.000000, 13.000000)">
                    <path d="M9.375,2.250375 C9.375,1.991625 9.41025,1.742625 9.46575,1.500375 L0,1.500375 L0,3.000375 L9.46575,3.000375 C9.41025,2.758125 9.375,2.509125 9.375,2.250375" id="Fill-43"></path>
                    <path d="M9.375,11.250375 C9.375,10.991625 9.41025,10.742625 9.46575,10.500375 L0,10.500375 L0,12.000375 L9.46575,12.000375 C9.41025,11.758125 9.375,11.509125 9.375,11.250375" id="Fill-44"></path>
                    <path d="M1.875,6.750375 C1.875,6.491625 1.91025,6.242625 1.96575,6.000375 L0,6.000375 L0,7.500375 L1.96575,7.500375 C1.91025,7.258125 1.875,7.009125 1.875,6.750375" id="Fill-45"></path>
                    <path d="M8.534175,6.000375 C8.589675,6.242625 8.624925,6.491625 8.624925,6.750375 C8.624925,7.009125 8.589675,7.258125 8.534175,7.500375 L14.999925,7.500375 L14.999925,6.000375 L8.534175,6.000375 Z" id="Fill-46"></path>
                    <path d="M12.75,0.000375 C11.5095,0.000375 10.5,1.009875 10.5,2.250375 C10.5,3.490875 11.5095,4.500375 12.75,4.500375 C13.9905,4.500375 15,3.490875 15,2.250375 C15,1.009875 13.9905,0.000375 12.75,0.000375" id="Fill-47"></path>
                    <path d="M5.25,4.500375 C4.0095,4.500375 3,5.509875 3,6.750375 C3,7.990875 4.0095,9.000375 5.25,9.000375 C6.4905,9.000375 7.5,7.990875 7.5,6.750375 C7.5,5.509875 6.4905,4.500375 5.25,4.500375" id="Fill-48"></path>
                    <path d="M12.75,9.000375 C11.5095,9.000375 10.5,10.009875 10.5,11.250375 C10.5,12.490875 11.5095,13.500375 12.75,13.500375 C13.9905,13.500375 15,12.490875 15,11.250375 C15,10.009875 13.9905,9.000375 12.75,9.000375" id="Fill-49"></path>
                </g>
            </g>
        </g>
    </g>
</svg>