<?xml version="1.0" encoding="UTF-8"?>
<svg width="40px" height="40px" viewBox="0 0 40 40" version="1.1" xmlns="http://www.w3.org/2000/svg" xmlns:xlink="http://www.w3.org/1999/xlink">
    <!-- Generator: Sketch 63.1 (92452) - https://sketch.com -->
    <title>define-and-use-cryptography-standards</title>
    <desc>Created with Sketch.</desc>
    <g id="Page-1" stroke="none" stroke-width="1" fill="none" fill-rule="evenodd">
        <g id="SDL-Copy" transform="translate(-124.000000, -995.000000)" fill="#0078FF">
            <g id="define-and-use-cryptography-standards" transform="translate(124.000000, 995.000000)">
                <g id="Group-7-Copy-3" fill-opacity="0.0969187063" stroke="#0078FF" stroke-width="1.32">
                    <rect id="Rectangle" transform="translate(19.800000, 19.800000) rotate(-45.000000) translate(-19.800000, -19.800000) " x="5.94" y="5.94" width="27.72" height="27.72" rx="1.32"></rect>
                </g>
                <g id="Fill-185" transform="translate(14.000000, 11.000000)">
                    <path d="M8.18959106,7.37141001 L3.27559072,7.37141001 L3.27559072,4.09540978 C3.27559072,2.74078369 4.3779648,1.63840961 5.73259089,1.63840961 C7.08721699,1.63840961 8.18959106,2.74078369 8.18959106,4.09540978 L8.18959106,7.37141001 Z M5.73259089,13.1044104 C5.05445885,13.1044104 4.50409081,12.5540424 4.50409081,11.8759103 C4.50409081,11.1977783 5.05445885,10.6474102 5.73259089,10.6474102 C6.41072294,10.6474102 6.96109098,11.1977783 6.96109098,11.8759103 C6.96109098,12.5540424 6.41072294,13.1044104 5.73259089,13.1044104 L5.73259089,13.1044104 Z M9.82759117,7.37141001 L9.82759117,4.09540978 C9.82759117,1.83742663 7.99057405,0.000409500028 5.73259089,0.000409500028 C3.47460774,0.000409500028 1.63759061,1.83742663 1.63759061,4.09540978 L1.63759061,7.37141001 C0.73423355,7.37141001 -0.000409500028,8.10523406 -0.000409500028,9.00941012 L-0.000409500028,14.7424105 C-0.000409500028,15.6457676 0.73423355,16.3804106 1.63759061,16.3804106 L9.82759117,16.3804106 C10.7309482,16.3804106 11.4655913,15.6457676 11.4655913,14.7424105 L11.4655913,9.00941012 C11.4655913,8.10523406 10.7309482,7.37141001 9.82759117,7.37141001 L9.82759117,7.37141001 Z"></path>
                </g>
            </g>
        </g>
    </g>
</svg>